<?xml version="1.0" standalone="no"?>
<!DOCTYPE svg PUBLIC "-//W3C//DTD SVG 1.1//EN" "http://www.w3.org/Graphics/SVG/1.1/DTD/svg11.dtd">
<svg width="183mm" height="252mm" viewBox="0 -252 183 252" xmlns="http://www.w3.org/2000/svg" version="1.1">
<title>OpenSCAD Model</title>
<path d="
M 183,-150.5 L 66,-150.5 L 66,-233.5 L 183,-233.5 L 183,-251.5 L 0,-251.5
 L 0,-129.5 L 183,-129.5 z
M 8.05574,-238.273 L 7.61636,-238.343 L 7.18668,-238.458 L 6.77136,-238.617 L 6.375,-238.819 L 6.00191,-239.062
 L 5.65619,-239.342 L 5.34163,-239.656 L 5.06168,-240.002 L 4.81938,-240.375 L 4.61743,-240.771 L 4.45801,-241.187
 L 4.34286,-241.616 L 4.27327,-242.056 L 4.25,-242.5 L 4.27327,-242.944 L 4.34286,-243.384 L 4.45801,-243.813
 L 4.61743,-244.229 L 4.81938,-244.625 L 5.06168,-244.998 L 5.34163,-245.344 L 5.65619,-245.658 L 6.00191,-245.938
 L 6.375,-246.181 L 6.77136,-246.383 L 7.18668,-246.542 L 7.61636,-246.657 L 8.05574,-246.727 L 8.5,-246.75
 L 8.94424,-246.727 L 9.38362,-246.657 L 9.81331,-246.542 L 10.2286,-246.383 L 10.625,-246.181 L 10.9981,-245.938
 L 11.3438,-245.658 L 11.6584,-245.344 L 11.9383,-244.998 L 12.1806,-244.625 L 12.3826,-244.229 L 12.542,-243.813
 L 12.6571,-243.384 L 12.7267,-242.944 L 12.75,-242.5 L 12.7267,-242.056 L 12.6571,-241.616 L 12.542,-241.187
 L 12.3826,-240.771 L 12.1806,-240.375 L 11.9383,-240.002 L 11.6584,-239.656 L 11.3438,-239.342 L 10.9981,-239.062
 L 10.625,-238.819 L 10.2286,-238.617 L 9.81331,-238.458 L 9.38362,-238.343 L 8.94424,-238.273 L 8.5,-238.25
 z
M 174.056,-238.273 L 173.616,-238.343 L 173.187,-238.458 L 172.771,-238.617 L 172.375,-238.819 L 172.002,-239.062
 L 171.656,-239.342 L 171.342,-239.656 L 171.062,-240.002 L 170.819,-240.375 L 170.617,-240.771 L 170.458,-241.187
 L 170.343,-241.616 L 170.273,-242.056 L 170.25,-242.5 L 170.273,-242.944 L 170.343,-243.384 L 170.458,-243.813
 L 170.617,-244.229 L 170.819,-244.625 L 171.062,-244.998 L 171.342,-245.344 L 171.656,-245.658 L 172.002,-245.938
 L 172.375,-246.181 L 172.771,-246.383 L 173.187,-246.542 L 173.616,-246.657 L 174.056,-246.727 L 174.5,-246.75
 L 174.944,-246.727 L 175.384,-246.657 L 175.813,-246.542 L 176.229,-246.383 L 176.625,-246.181 L 176.998,-245.938
 L 177.344,-245.658 L 177.658,-245.344 L 177.938,-244.998 L 178.181,-244.625 L 178.383,-244.229 L 178.542,-243.813
 L 178.657,-243.384 L 178.727,-242.944 L 178.75,-242.5 L 178.727,-242.056 L 178.657,-241.616 L 178.542,-241.187
 L 178.383,-240.771 L 178.181,-240.375 L 177.938,-240.002 L 177.658,-239.656 L 177.344,-239.342 L 176.998,-239.062
 L 176.625,-238.819 L 176.229,-238.617 L 175.813,-238.458 L 175.384,-238.343 L 174.944,-238.273 L 174.5,-238.25
 z
M 8.05574,-134.273 L 7.61636,-134.343 L 7.18668,-134.458 L 6.77136,-134.617 L 6.375,-134.819 L 6.00191,-135.062
 L 5.65619,-135.342 L 5.34163,-135.656 L 5.06168,-136.002 L 4.81938,-136.375 L 4.61743,-136.771 L 4.45801,-137.187
 L 4.34286,-137.616 L 4.27327,-138.056 L 4.25,-138.5 L 4.27327,-138.944 L 4.34286,-139.384 L 4.45801,-139.813
 L 4.61743,-140.229 L 4.81938,-140.625 L 5.06168,-140.998 L 5.34163,-141.344 L 5.65619,-141.658 L 6.00191,-141.938
 L 6.375,-142.181 L 6.77136,-142.383 L 7.18668,-142.542 L 7.61636,-142.657 L 8.05574,-142.727 L 8.5,-142.75
 L 8.94424,-142.727 L 9.38362,-142.657 L 9.81331,-142.542 L 10.2286,-142.383 L 10.625,-142.181 L 10.9981,-141.938
 L 11.3438,-141.658 L 11.6584,-141.344 L 11.9383,-140.998 L 12.1806,-140.625 L 12.3826,-140.229 L 12.542,-139.813
 L 12.6571,-139.384 L 12.7267,-138.944 L 12.75,-138.5 L 12.7267,-138.056 L 12.6571,-137.616 L 12.542,-137.187
 L 12.3826,-136.771 L 12.1806,-136.375 L 11.9383,-136.002 L 11.6584,-135.656 L 11.3438,-135.342 L 10.9981,-135.062
 L 10.625,-134.819 L 10.2286,-134.617 L 9.81331,-134.458 L 9.38362,-134.343 L 8.94424,-134.273 L 8.5,-134.25
 z
M 174.056,-134.273 L 173.616,-134.343 L 173.187,-134.458 L 172.771,-134.617 L 172.375,-134.819 L 172.002,-135.062
 L 171.656,-135.342 L 171.342,-135.656 L 171.062,-136.002 L 170.819,-136.375 L 170.617,-136.771 L 170.458,-137.187
 L 170.343,-137.616 L 170.273,-138.056 L 170.25,-138.5 L 170.273,-138.944 L 170.343,-139.384 L 170.458,-139.813
 L 170.617,-140.229 L 170.819,-140.625 L 171.062,-140.998 L 171.342,-141.344 L 171.656,-141.658 L 172.002,-141.938
 L 172.375,-142.181 L 172.771,-142.383 L 173.187,-142.542 L 173.616,-142.657 L 174.056,-142.727 L 174.5,-142.75
 L 174.944,-142.727 L 175.384,-142.657 L 175.813,-142.542 L 176.229,-142.383 L 176.625,-142.181 L 176.998,-141.938
 L 177.344,-141.658 L 177.658,-141.344 L 177.938,-140.998 L 178.181,-140.625 L 178.383,-140.229 L 178.542,-139.813
 L 178.657,-139.384 L 178.727,-138.944 L 178.75,-138.5 L 178.727,-138.056 L 178.657,-137.616 L 178.542,-137.187
 L 178.383,-136.771 L 178.181,-136.375 L 177.938,-136.002 L 177.658,-135.656 L 177.344,-135.342 L 176.998,-135.062
 L 176.625,-134.819 L 176.229,-134.617 L 175.813,-134.458 L 175.384,-134.343 L 174.944,-134.273 L 174.5,-134.25
 z
M 183,-74 L 157,-74 L 157,-93 L 183,-93 L 183,-122 L 0,-122
 L 0,-0 L 183,-0 z
M 8.05574,-108.773 L 7.61636,-108.843 L 7.18668,-108.958 L 6.77136,-109.117 L 6.375,-109.319 L 6.00191,-109.562
 L 5.65619,-109.842 L 5.34163,-110.156 L 5.06168,-110.502 L 4.81938,-110.875 L 4.61743,-111.271 L 4.45801,-111.687
 L 4.34286,-112.116 L 4.27327,-112.556 L 4.25,-113 L 4.27327,-113.444 L 4.34286,-113.884 L 4.45801,-114.313
 L 4.61743,-114.729 L 4.81938,-115.125 L 5.06168,-115.498 L 5.34163,-115.844 L 5.65619,-116.158 L 6.00191,-116.438
 L 6.375,-116.681 L 6.77136,-116.883 L 7.18668,-117.042 L 7.61636,-117.157 L 8.05574,-117.227 L 8.5,-117.25
 L 8.94424,-117.227 L 9.38362,-117.157 L 9.81331,-117.042 L 10.2286,-116.883 L 10.625,-116.681 L 10.9981,-116.438
 L 11.3438,-116.158 L 11.6584,-115.844 L 11.9383,-115.498 L 12.1806,-115.125 L 12.3826,-114.729 L 12.542,-114.313
 L 12.6571,-113.884 L 12.7267,-113.444 L 12.75,-113 L 12.7267,-112.556 L 12.6571,-112.116 L 12.542,-111.687
 L 12.3826,-111.271 L 12.1806,-110.875 L 11.9383,-110.502 L 11.6584,-110.156 L 11.3438,-109.842 L 10.9981,-109.562
 L 10.625,-109.319 L 10.2286,-109.117 L 9.81331,-108.958 L 9.38362,-108.843 L 8.94424,-108.773 L 8.5,-108.75
 z
M 174.056,-108.773 L 173.616,-108.843 L 173.187,-108.958 L 172.771,-109.117 L 172.375,-109.319 L 172.002,-109.562
 L 171.656,-109.842 L 171.342,-110.156 L 171.062,-110.502 L 170.819,-110.875 L 170.617,-111.271 L 170.458,-111.687
 L 170.343,-112.116 L 170.273,-112.556 L 170.25,-113 L 170.273,-113.444 L 170.343,-113.884 L 170.458,-114.313
 L 170.617,-114.729 L 170.819,-115.125 L 171.062,-115.498 L 171.342,-115.844 L 171.656,-116.158 L 172.002,-116.438
 L 172.375,-116.681 L 172.771,-116.883 L 173.187,-117.042 L 173.616,-117.157 L 174.056,-117.227 L 174.5,-117.25
 L 174.944,-117.227 L 175.384,-117.157 L 175.813,-117.042 L 176.229,-116.883 L 176.625,-116.681 L 176.998,-116.438
 L 177.344,-116.158 L 177.658,-115.844 L 177.938,-115.498 L 178.181,-115.125 L 178.383,-114.729 L 178.542,-114.313
 L 178.657,-113.884 L 178.727,-113.444 L 178.75,-113 L 178.727,-112.556 L 178.657,-112.116 L 178.542,-111.687
 L 178.383,-111.271 L 178.181,-110.875 L 177.938,-110.502 L 177.658,-110.156 L 177.344,-109.842 L 176.998,-109.562
 L 176.625,-109.319 L 176.229,-109.117 L 175.813,-108.958 L 175.384,-108.843 L 174.944,-108.773 L 174.5,-108.75
 z
M 8.05574,-4.77327 L 7.61636,-4.84286 L 7.18668,-4.95801 L 6.77136,-5.11743 L 6.375,-5.31938 L 6.00191,-5.56168
 L 5.65619,-5.84163 L 5.34163,-6.15619 L 5.06168,-6.50191 L 4.81938,-6.875 L 4.61743,-7.27136 L 4.45801,-7.68668
 L 4.34286,-8.11636 L 4.27327,-8.55574 L 4.25,-9 L 4.27327,-9.44424 L 4.34286,-9.88362 L 4.45801,-10.3133
 L 4.61743,-10.7286 L 4.81938,-11.125 L 5.06168,-11.4981 L 5.34163,-11.8438 L 5.65619,-12.1584 L 6.00191,-12.4383
 L 6.375,-12.6806 L 6.77136,-12.8826 L 7.18668,-13.042 L 7.61636,-13.1571 L 8.05574,-13.2267 L 8.5,-13.25
 L 8.94424,-13.2267 L 9.38362,-13.1571 L 9.81331,-13.042 L 10.2286,-12.8826 L 10.625,-12.6806 L 10.9981,-12.4383
 L 11.3438,-12.1584 L 11.6584,-11.8438 L 11.9383,-11.4981 L 12.1806,-11.125 L 12.3826,-10.7286 L 12.542,-10.3133
 L 12.6571,-9.88362 L 12.7267,-9.44424 L 12.75,-9 L 12.7267,-8.55574 L 12.6571,-8.11636 L 12.542,-7.68668
 L 12.3826,-7.27136 L 12.1806,-6.875 L 11.9383,-6.50191 L 11.6584,-6.15619 L 11.3438,-5.84163 L 10.9981,-5.56168
 L 10.625,-5.31938 L 10.2286,-5.11743 L 9.81331,-4.95801 L 9.38362,-4.84286 L 8.94424,-4.77327 L 8.5,-4.75
 z
M 174.056,-4.77327 L 173.616,-4.84286 L 173.187,-4.95801 L 172.771,-5.11743 L 172.375,-5.31938 L 172.002,-5.56168
 L 171.656,-5.84163 L 171.342,-6.15619 L 171.062,-6.50191 L 170.819,-6.875 L 170.617,-7.27136 L 170.458,-7.68668
 L 170.343,-8.11636 L 170.273,-8.55574 L 170.25,-9 L 170.273,-9.44424 L 170.343,-9.88362 L 170.458,-10.3133
 L 170.617,-10.7286 L 170.819,-11.125 L 171.062,-11.4981 L 171.342,-11.8438 L 171.656,-12.1584 L 172.002,-12.4383
 L 172.375,-12.6806 L 172.771,-12.8826 L 173.187,-13.042 L 173.616,-13.1571 L 174.056,-13.2267 L 174.5,-13.25
 L 174.944,-13.2267 L 175.384,-13.1571 L 175.813,-13.042 L 176.229,-12.8826 L 176.625,-12.6806 L 176.998,-12.4383
 L 177.344,-12.1584 L 177.658,-11.8438 L 177.938,-11.4981 L 178.181,-11.125 L 178.383,-10.7286 L 178.542,-10.3133
 L 178.657,-9.88362 L 178.727,-9.44424 L 178.75,-9 L 178.727,-8.55574 L 178.657,-8.11636 L 178.542,-7.68668
 L 178.383,-7.27136 L 178.181,-6.875 L 177.938,-6.50191 L 177.658,-6.15619 L 177.344,-5.84163 L 176.998,-5.56168
 L 176.625,-5.31938 L 176.229,-5.11743 L 175.813,-4.95801 L 175.384,-4.84286 L 174.944,-4.77327 L 174.5,-4.75
 z
" stroke="black" fill="lightgray" stroke-width="0.5"/>
</svg>
