<?xml version="1.0" encoding="UTF-8" standalone="no"?>
<!-- Created with Inkscape (http://www.inkscape.org/) -->

<svg
   width="12in"
   height="12in"
   viewBox="0 0 304.8 304.8"
   version="1.1"
   id="svg5"
   xml:space="preserve"
   xmlns="http://www.w3.org/2000/svg"
   xmlns:svg="http://www.w3.org/2000/svg"><defs
     id="defs2" /><g
     id="layer1"
     style="display:inline"><path
       id="rect12902"
       style="display:inline;opacity:1;fill:#ff0000;stroke:none;stroke-width:0.499999;stroke-linecap:round;stroke-linejoin:round;paint-order:fill markers stroke;stop-color:#000000"
       d="M 0,0 V 304.8 H 304.8 V 0 Z m 37.651965,26.462984 h 4.136699 l 5.360913,14.774292 h -4.432288 l -0.802018,-2.596224 h -4.432288 l -0.802018,2.596224 h -4.39043 z M 284.06225,82.813033 c 1.01174,0.04244 5.4027,4.120433 1.97094,5.85494 -1.31726,0.664992 -3.23562,-0.620399 -4.73511,0.05426 -2.62169,1.176558 -4.92374,3.079362 -1.93115,5.029667 -0.88885,1.298039 -2.68872,2.841914 -2.87735,4.475696 -0.15973,1.419558 1.21147,2.321504 0.6072,3.836974 -1.31722,3.28671 -5.51488,5.09614 -7.55148,7.99279 -1.2725,1.8064 0.0413,3.88484 -1.25677,5.75521 -1.11262,1.59859 -2.82318,2.11643 -4.23953,3.32176 -2.8583,2.43627 -6.88356,5.9694 -8.37985,9.46712 -1.61777,3.78552 -0.52104,7.72443 -1.0294,11.50989 -0.54672,4.07006 -2.90018,8.15582 -3.92327,12.14913 -1.93751,7.56137 -8.2582,17.7543 -1.44177,25.18141 1.28848,1.40355 3.24212,0.23986 4.83433,0.7674 6.48713,2.16449 11.03339,4.06003 17.58445,0.3576 1.03269,-0.58188 6.10032,-2.86452 6.7877,-0.9462 0.42203,1.18298 -0.65557,2.638 -0.95291,3.73466 -0.86963,3.22278 -4.80545,7.70838 -7.18096,10.17664 -1.13819,1.17977 -2.82303,1.92481 -3.38894,3.57136 -1.0263,3.00537 -0.46052,6.76497 -0.74827,9.91102 -0.35497,3.88139 -1.43826,8.57802 -2.27273,12.46901 -0.665,3.10446 -3.1561,5.72322 -3.40548,8.95242 -0.29417,3.80787 0.4768,8.65793 0.87643,12.46901 0.1503,1.42594 0.87245,3.04068 0.54312,4.47621 -0.70336,3.06293 -7.24457,7.09446 -10.08052,8.04085 -3.77909,1.25968 -8.79878,-0.5308 -12.78888,-0.35501 -6.19939,0.27188 -12.61611,0.732 -18.86345,0.0264 -5.1507,-0.58509 -9.76106,-2.57356 -14.70711,-3.8716 -2.83274,-0.74176 -5.82522,-0.88226 -8.58759,-1.98851 -1.48991,-0.60106 -2.20931,-2.85505 -3.88142,-3.76307 -1.60822,-0.87284 -2.83284,-0.17611 -4.47621,-0.49248 -1.17977,-0.22695 -2.05582,-1.19293 -3.19722,-1.54461 -1.94072,-0.59789 -4.9332,-0.25552 -5.93711,1.72341 -0.69059,1.36201 -1.45508,5.58878 -3.93929,4.69997 -3.39543,-1.21175 -1.81575,-8.56523 -2.82929,-11.10061 -0.35496,-0.8856 -1.04865,-1.42925 -2.00143,-1.46761 -1.50266,-0.0574 -2.98313,0.45426 -4.47621,-0.0414 -2.49065,-0.83128 -3.86882,-2.36295 -6.71432,-1.87378 -3.56807,0.61707 -7.58981,3.39847 -10.87013,4.98109 -5.98196,2.88386 -14.75518,4.3484 -18.43195,10.54457 -1.21175,2.04302 -1.47721,4.4955 -2.25413,6.71432 -1.4899,4.27786 -3.39841,8.19771 -3.8716,12.78889 -0.19821,1.91511 1.0742,3.49413 0.75448,5.43481 -0.34209,2.07764 -4.10887,2.70729 -6.05958,4.19922 0.70658,-1.6977 2.5438,-4.03375 2.72283,-5.79861 0.46679,-4.66472 -3.6928,-9.46338 -4.13722,-14.06736 -0.27814,-2.87109 0.86649,-5.23092 0.90486,-7.99331 0.0321,-2.33713 -1.10325,-4.59726 -1.03611,-6.7138 0.0799,-2.53218 1.96301,-4.39329 1.04541,-7.0342 -0.88882,-2.56095 -3.04688,-5.97228 -5.76451,-6.82594 -1.94069,-0.60762 -4.07631,-0.15656 -6.07456,-0.70641 -3.69916,-1.01671 -6.25716,-2.47176 -10.218497,-1.42627 -2.158111,0.56911 -3.110573,3.05338 -5.44773,3.45302 -3.75671,0.63946 -9.451006,-0.0701 -12.788883,1.94407 -1.640165,0.98792 -2.407634,2.89036 -3.843177,4.11809 -3.353862,2.87431 -7.978244,5.32602 -12.074198,6.94066 -0.422715,0.16653 -0.799918,0.16977 -0.707967,-0.14366 1.093046,-3.72664 5.537306,-5.27827 7.925614,-7.99589 0.808893,-0.9208 2.388507,-2.81029 1.908928,-4.14032 -0.549917,-1.52186 -2.928862,-2.74951 -4.079855,-3.84938 1.652951,-0.40602 5.921227,-0.22733 3.830257,-3.45973 -1.016709,-1.56665 -3.062724,-1.96953 -4.469494,-3.05977 -1.899137,-1.47709 -2.957313,-3.74681 -4.808492,-5.20795 -0.712977,-0.5659 -2.075404,-0.55031 -2.602942,-1.25367 -0.613851,-0.81211 0.364814,-2.37846 0.329696,-3.32486 -0.07673,-2.03021 -1.467833,-5.52776 -2.896981,-6.9665 -1.806416,-1.80972 -3.337798,-0.82845 -5.355229,-1.54461 -1.636969,-0.5787 -3.810892,-2.84224 -4.725293,-4.27777 -1.67853,-2.64411 -1.937795,-5.62702 -3.325378,-8.31267 -0.72257,-1.39717 -2.685424,-2.32132 -2.982764,-3.84318 -0.223817,-1.13819 0.620117,-2.08429 0.620117,-3.1905 0,-3.1237 -0.748119,-6.39767 -0.668176,-9.59166 0.03837,-1.48991 0.873015,-2.97993 0.575675,-4.47622 -0.53393,-2.71758 -3.280629,-3.26138 -4.214213,-5.7552 -3.705553,1.80005 -7.608211,0.13314 -8.193298,-3.88245 -1.942651,-0.91128 -3.841103,-2.68432 -3.636471,-5.06946 2.23555,1.60233 3.658328,3.03492 6.418213,3.84938 1.079656,-0.18239 1.302962,-0.63557 1.894975,-0.97204 2.685649,1.56027 3.692327,-0.38059 6.067847,0.24908 2.257225,0.59789 2.951426,4.10245 5.442045,5.20227 1.0295,0.4573 2.842141,-0.29733 3.59668,0.53382 0.671536,0.73534 -0.220708,2.44281 0.687296,3.6034 1.45473,1.85755 5.397063,2.97665 6.218742,4.82141 0.898412,2.02066 0.04805,7.00779 1.51877,8.36021 1.362008,1.25023 4.760427,0.54401 6.522083,1.40405 2.887072,1.41318 4.613556,4.42804 7.353556,6.03942 2.544974,1.4963 6.084305,1.79016 8.498189,3.54862 2.1741,1.58262 2.397875,3.54283 3.814238,5.56349 1.023103,1.46431 2.519404,2.61531 3.436999,4.15633 0.65223,1.09345 0.252863,2.46792 1.256771,3.37913 1.790435,1.62419 5.227185,0.63955 7.292578,0.23047 1.620982,-0.32286 2.621679,0.38718 4.156336,0.47026 2.151723,0.1182 3.990203,-1.42288 5.435323,-2.80086 l 1.91823,3.83645 c 2.46825,2.11654 1.46144,3.79195 0.63976,6.39445 h -0.31988 c 2.48103,1.39399 3.43672,-0.56926 5.75469,-1.34617 2.44586,-0.8185 4.12123,-1.98543 6.39444,-3.13005 1.54425,-0.77692 3.16551,-0.84095 4.35167,-2.25412 2.35634,-2.81355 2.40401,-5.97865 3.00189,-9.25577 1.25009,1.40676 1.57334,5.28821 3.23907,5.95003 1.65935,0.6554 3.96128,-1.85434 5.71335,-2.05259 1.50588,-0.17295 2.96714,0.40861 4.47621,0.15296 6.47434,-1.09344 12.5614,-4.18163 19.18281,-4.91701 4.37057,-0.486 8.69663,-0.38663 13.10876,-0.15968 1.41635,0.0736 2.73678,-0.41229 4.15634,-0.0574 3.29629,0.82809 6.12253,2.84205 9.27178,3.75326 1.3812,0.39952 2.80392,-0.39317 4.15634,0.0832 1.42273,0.49876 2.25754,1.76479 3.83697,1.9823 1.9215,0.26207 4.96491,-0.19476 6.69779,-1.08055 0.77054,-0.39647 1.56341,-1.8991 2.497,-1.76165 2.41071,0.35157 5.64983,4.74779 6.70812,6.73964 0.76412,1.43874 1.69426,3.7501 3.59978,3.90984 2.6633,0.21751 8.17524,-2.70458 10.10636,-4.43746 1.30125,-1.16695 1.5766,-2.98644 3.32228,-3.75377 2.56416,-1.12535 5.69733,0.64587 8.31267,-0.27492 1.95669,-0.68739 4.73241,-2.37195 4.74751,-4.71548 0.008,-0.87924 -0.30664,-1.76826 -0.66146,-2.55798 -3.58725,-7.96103 -9.77739,4.38954 -15.27658,1.64951 -7.44309,-3.70873 -11.078,-11.20922 -16.42691,-16.90026 -2.4107,-2.56412 -6.1677,-2.59264 -8.7638,-4.48861 -0.88885,-0.64902 -1.24372,-1.78131 -2.05259,-2.51664 -0.88564,-0.80253 -2.10367,-1.01971 -2.99568,-1.81901 -3.02457,-2.71443 -4.18203,-5.67846 -5.87975,-9.17619 -1.01033,-2.08138 -3.29001,-4.24237 -2.88716,-6.7138 5.41925,2.41709 9.39686,6.46479 15.34687,8.15609 1.33322,0.37725 3.42076,0.79891 4.79557,0.66146 1.07426,-0.10838 2.32147,-1.05805 3.32538,-0.29714 1.22134,0.924 1.64326,2.65391 2.79104,3.6866 3.99011,3.58725 10.17368,7.59978 15.62489,7.91321 1.47711,0.0861 2.70118,0.9394 4.10156,0.0186 3.45935,-2.2828 4.07366,-6.85811 4.67155,-10.54768 0.60105,-3.70235 2.01095,-8.79207 3.69589,-12.14912 0.74815,-2.53219 -0.0113,-5.15033 1.00718,-7.67292 1.67215,-4.13716 4.13383,-8.09878 6.1097,-12.14965 1.56343,-3.2068 3.31226,-5.89564 0.61702,-9.18238 -0.71299,-0.86963 -1.99141,-1.13834 -2.93781,-1.68827 l -0.31987,-6.39393 c 1.3524,1.29487 2.43926,2.8453 3.83645,4.1274 0.76412,0.69698 1.57326,1.33005 2.55799,1.67535 7.6669,2.68244 8.73757,-6.96658 13.1625,-10.43554 2.36913,-1.85439 6.27327,-0.54391 8.11165,-3.37344 0.82488,-1.26929 -0.42828,-2.9798 0.0341,-4.463289 0.56273,-1.796841 2.39104,-2.570511 3.26388,-4.156336 0.86963,-1.582614 0.71947,-3.538919 1.67225,-5.108732 0.83447,-1.377981 4.15962,-3.341118 5.72627,-3.692798 0.94957,-0.214112 3.27374,0.677446 3.54552,-0.809253 0.23677,-1.285274 -1.66255,-2.36599 -0.85525,-2.597774 0.0252,-0.0072 0.0542,-0.01015 0.0868,-0.0088 z" /></g></svg>
