<?xml version="1.0" encoding="UTF-8" standalone="no"?>
<!-- Created with Inkscape (http://www.inkscape.org/) -->

<svg
   width="12in"
   height="12in"
   viewBox="0 0 304.8 304.8"
   version="1.1"
   id="svg5"
   xml:space="preserve"
   xmlns="http://www.w3.org/2000/svg"
   xmlns:svg="http://www.w3.org/2000/svg"><defs
     id="defs2" /><g
     id="layer12"
     style="display:inline"><path
       id="path2333"
       style="font-size:17.2789px;line-height:1.25;font-family:Interstate-Black;-inkscape-font-specification:Interstate-Black;letter-spacing:0px;word-spacing:0px;display:inline;fill:#000000;stroke-width:0.264583"
       d="m 199.27414,283.1269 c -0.32455,0 -0.62452,0.0245 -0.89969,0.0739 -0.27515,0.0494 -0.52939,0.12018 -0.76222,0.21187 -0.23284,0.0847 -0.45116,0.18702 -0.65578,0.30696 -0.19755,0.11289 -0.38102,0.23595 -0.55035,0.37001 l 0.97358,1.33376 c 0.28928,-0.2046 0.57837,-0.35977 0.86765,-0.4656 0.28927,-0.11289 0.61376,-0.1695 0.97358,-0.1695 0.36689,0 0.6282,0.0528 0.78342,0.15865 0.16228,0.0988 0.2434,0.24686 0.2434,0.44442 0,0.24694 -0.0637,0.41297 -0.19069,0.49764 -0.11994,0.0847 -0.34207,0.12712 -0.66663,0.12712 h -0.95239 v 1.59784 h 1.06867 c 0.381,0 0.64938,0.0528 0.8046,0.15865 0.16228,0.10583 0.24339,0.2893 0.24339,0.55035 0,0.254 -0.0953,0.44454 -0.28577,0.57154 -0.1905,0.11995 -0.50082,0.17983 -0.93121,0.17983 -0.40922,0 -0.78702,-0.0702 -1.13274,-0.21135 -0.34572,-0.14111 -0.6702,-0.32837 -0.97359,-0.56121 l -1.05833,1.33377 c 0.40217,0.35278 0.86437,0.63152 1.38648,0.83613 0.52211,0.19756 1.10082,0.2961 1.73581,0.2961 0.50094,0 0.95227,-0.0457 1.35444,-0.13746 0.40216,-0.0988 0.74079,-0.24686 1.01596,-0.44442 0.28222,-0.20459 0.49779,-0.46211 0.64595,-0.77256 0.15523,-0.31044 0.23255,-0.68117 0.23255,-1.11156 0,-0.23283 -0.0354,-0.4408 -0.10594,-0.62425 -0.0705,-0.18344 -0.16582,-0.3386 -0.28577,-0.4656 -0.11289,-0.13406 -0.25011,-0.23969 -0.41238,-0.3173 -0.15523,-0.0847 -0.31797,-0.14835 -0.48731,-0.19068 0.127,-0.0635 0.25058,-0.1343 0.37052,-0.21188 0.11995,-0.0847 0.22229,-0.18322 0.30696,-0.2961 0.0917,-0.11995 0.16577,-0.25388 0.22221,-0.40205 0.0565,-0.1552 0.0847,-0.33541 0.0847,-0.54001 0,-0.38806 -0.0702,-0.71582 -0.21136,-0.98392 -0.14111,-0.27517 -0.34253,-0.49781 -0.60358,-0.66715 -0.26106,-0.16933 -0.57466,-0.28911 -0.94154,-0.35966 -0.35983,-0.0776 -0.76215,-0.11628 -1.20665,-0.11628 z m 13.47256,0 c -0.32455,0 -0.62831,0.0599 -0.91053,0.17984 -0.27517,0.11288 -0.51853,0.27133 -0.73019,0.47594 -0.20461,0.2046 -0.36685,0.44848 -0.48679,0.7307 -0.11995,0.27517 -0.17984,0.57842 -0.17984,0.91002 0,0.33867 0.0599,0.64899 0.17984,0.93121 0.11994,0.28222 0.28218,0.52938 0.48679,0.74104 0.21166,0.20462 0.45502,0.36306 0.73019,0.47594 0.28222,0.11289 0.58598,0.1695 0.91053,0.1695 0.32456,0 0.62781,-0.0566 0.91003,-0.1695 0.28222,-0.11288 0.52558,-0.27132 0.73018,-0.47594 0.20462,-0.21166 0.36685,-0.45882 0.4868,-0.74104 0.11994,-0.28222 0.17983,-0.59254 0.17983,-0.93121 0,-0.3316 -0.0599,-0.63485 -0.17983,-0.91002 -0.11995,-0.28222 -0.28218,-0.5261 -0.4868,-0.7307 -0.2046,-0.20461 -0.44796,-0.36306 -0.73018,-0.47594 -0.28222,-0.11995 -0.58547,-0.17984 -0.91003,-0.17984 z m 10.03298,0 c -0.635,0 -1.20663,0.0844 -1.71462,0.25374 -0.50095,0.16933 -0.98766,0.40561 -1.46038,0.709 l 0.94155,1.5136 c 0.37394,-0.24694 0.74087,-0.43369 1.10071,-0.56069 0.35983,-0.127 0.72676,-0.19069 1.1007,-0.19069 0.29634,0 0.50811,0.0457 0.63511,0.13746 0.127,0.0847 0.19068,0.20824 0.19068,0.37052 0,0.0776 -0.0108,0.14458 -0.032,0.20102 -0.0211,0.0494 -0.0636,0.10222 -0.12712,0.15865 -0.0635,0.0565 -0.15501,0.11635 -0.27492,0.17983 -0.11289,0.0635 -0.26805,0.13751 -0.4656,0.22221 -0.46567,0.20461 -0.88542,0.44141 -1.25936,0.70952 -0.37394,0.26105 -0.69513,0.57138 -0.96325,0.93121 -0.26105,0.35983 -0.46903,0.7763 -0.62425,1.24902 -0.14816,0.47272 -0.22928,1.01932 -0.24339,1.64021 h 6.05337 v -1.67225 h -3.86281 c 0.0423,-0.11289 0.10223,-0.22232 0.17983,-0.32815 0.0776,-0.11288 0.19412,-0.22939 0.34934,-0.34933 0.15522,-0.127 0.35283,-0.26093 0.59273,-0.40204 0.24694,-0.14111 0.55727,-0.29628 0.9312,-0.46561 0.35278,-0.16226 0.64239,-0.32451 0.86817,-0.48679 0.23283,-0.16227 0.4125,-0.33159 0.5395,-0.50798 0.13405,-0.17639 0.22605,-0.36365 0.27544,-0.5612 0.0494,-0.19756 0.0739,-0.41968 0.0739,-0.66663 0,-0.67732 -0.23627,-1.19234 -0.709,-1.54512 -0.47272,-0.35984 -1.1712,-0.53951 -2.09548,-0.53951 z m 7.24917,0 c -0.47978,0 -0.92731,0.0844 -1.34358,0.25374 -0.40922,0.16933 -0.7658,0.41648 -1.06919,0.74104 -0.29633,0.32455 -0.52933,0.72634 -0.69866,1.20612 -0.16934,0.47272 -0.25374,1.01605 -0.25374,1.62988 0,0.61382 0.0844,1.16096 0.25374,1.64072 0.16933,0.47272 0.40233,0.87124 0.69866,1.1958 0.29633,0.3175 0.64911,0.56085 1.05833,0.73019 0.40922,0.16228 0.854,0.24339 1.33377,0.24339 0.47978,0 0.92405,-0.0844 1.33325,-0.25373 0.41628,-0.16933 0.77234,-0.41648 1.06867,-0.74104 0.30339,-0.32455 0.54019,-0.72307 0.70952,-1.19579 0.16933,-0.47978 0.25373,-1.0269 0.25373,-1.64073 0,-0.61383 -0.0844,-1.15664 -0.25373,-1.62936 -0.16933,-0.47977 -0.40233,-0.87881 -0.69866,-1.19631 -0.29633,-0.32455 -0.64911,-0.5679 -1.05834,-0.73018 -0.40922,-0.16934 -0.85399,-0.25374 -1.33377,-0.25374 z m 28.47992,0 c -0.70555,0 -1.33379,0.067 -1.88412,0.20103 -0.54328,0.13405 -1.01911,0.31752 -1.42834,0.55035 -0.40922,0.22577 -0.75493,0.49365 -1.03715,0.80408 -0.28222,0.30339 -0.51194,0.62459 -0.68833,0.96325 -0.16933,0.33867 -0.29239,0.68438 -0.37,1.03715 -0.0776,0.35278 -0.11679,0.69141 -0.11679,1.01596 0,0.508 0.0778,0.95605 0.23306,1.3441 0.15522,0.381 0.37027,0.7022 0.64544,0.96325 0.27517,0.254 0.60672,0.44454 0.99477,0.57154 0.38805,0.127 0.81488,0.19017 1.28054,0.19017 0.52211,0 0.99139,-0.0599 1.40767,-0.17983 0.41627,-0.11995 0.76905,-0.29254 1.05833,-0.51832 0.29634,-0.23283 0.52226,-0.51536 0.67748,-0.84697 0.15522,-0.33161 0.23306,-0.70562 0.23306,-1.1219 0,-0.38805 -0.0637,-0.72668 -0.19068,-1.01596 -0.127,-0.28928 -0.30719,-0.52883 -0.54002,-0.71933 -0.23284,-0.1905 -0.51157,-0.33203 -0.83613,-0.42375 -0.3175,-0.0917 -0.66649,-0.13746 -1.04748,-0.13746 -0.4445,0 -0.81471,0.0387 -1.11104,0.11627 -0.28928,0.0776 -0.55387,0.18376 -0.79375,0.31781 0.14111,-0.21166 0.31042,-0.406 0.50798,-0.58239 0.20461,-0.17639 0.44797,-0.32775 0.73019,-0.45475 0.28222,-0.127 0.60999,-0.22227 0.98391,-0.28577 0.37395,-0.0706 0.80457,-0.10594 1.2914,-0.10594 z m 4.91081,0 c -0.635,0 -1.20663,0.0844 -1.71462,0.25374 -0.50095,0.16933 -0.98766,0.40561 -1.46038,0.709 l 0.94154,1.5136 c 0.37394,-0.24694 0.74088,-0.43369 1.10071,-0.56069 0.35984,-0.127 0.72677,-0.19069 1.10071,-0.19069 0.29633,0 0.5081,0.0457 0.6351,0.13746 0.127,0.0847 0.19069,0.20824 0.19069,0.37052 0,0.0776 -0.0109,0.14458 -0.032,0.20102 -0.0211,0.0494 -0.0631,0.10222 -0.12661,0.15865 -0.0635,0.0565 -0.15552,0.11635 -0.27543,0.17983 -0.11289,0.0635 -0.26805,0.13751 -0.46561,0.22221 -0.46566,0.20461 -0.88541,0.44141 -1.25935,0.70952 -0.37395,0.26105 -0.69514,0.57138 -0.96325,0.93121 -0.26106,0.35983 -0.46903,0.7763 -0.62425,1.24902 -0.14817,0.47272 -0.22928,1.01932 -0.2434,1.64021 h 6.05338 v -1.67225 H 262.414 c 0.0423,-0.11289 0.10222,-0.22232 0.17983,-0.32815 0.0776,-0.11288 0.19411,-0.22939 0.34933,-0.34933 0.15523,-0.127 0.35285,-0.26093 0.59273,-0.40204 0.24694,-0.14111 0.55727,-0.29628 0.93121,-0.46561 0.35277,-0.16226 0.64187,-0.32451 0.86765,-0.48679 0.23283,-0.16227 0.41302,-0.33159 0.54002,-0.50798 0.13405,-0.17639 0.22553,-0.36365 0.27492,-0.5612 0.0494,-0.19756 0.0744,-0.41968 0.0744,-0.66663 0,-0.67732 -0.23627,-1.19234 -0.709,-1.54512 -0.47272,-0.35984 -1.17121,-0.53951 -2.09548,-0.53951 z m -59.57362,0.11628 -0.25374,3.84162 1.75649,0.59273 c 0.18344,-0.13405 0.37778,-0.2364 0.58239,-0.30696 0.20461,-0.0776 0.4654,-0.11627 0.7829,-0.11627 0.3175,0 0.56085,0.074 0.73019,0.22221 0.17638,0.14111 0.26458,0.35616 0.26458,0.64544 0,0.29633 -0.0985,0.52933 -0.29611,0.69866 -0.1905,0.16228 -0.52584,0.2434 -1.00562,0.2434 -0.40217,0 -0.81104,-0.067 -1.22732,-0.20102 -0.40922,-0.14111 -0.7941,-0.3175 -1.15393,-0.52917 l -0.83613,1.53427 c 0.45861,0.27517 0.93876,0.49402 1.43971,0.6563 0.508,0.16228 1.08291,0.24339 1.72496,0.24339 1.05833,0 1.87659,-0.23248 2.45515,-0.69815 0.58561,-0.46566 0.8785,-1.13256 0.8785,-2.00039 0,-0.40922 -0.0637,-0.76908 -0.19069,-1.07952 -0.127,-0.31045 -0.30667,-0.56468 -0.5395,-0.76223 -0.22578,-0.20461 -0.50124,-0.35598 -0.82579,-0.45475 -0.32455,-0.10584 -0.68769,-0.15917 -1.08986,-0.15917 -0.37394,0 -0.68426,0.0321 -0.93121,0.0956 -0.23988,0.0565 -0.46201,0.13379 -0.66662,0.23254 l 0.063,-1.02629 h 3.73621 v -1.67225 z m 30.51183,0 0.41238,3.46077 h 1.49241 l 0.4129,-3.46077 z m 8.43463,0 c -0.0565,0.16933 -0.12343,0.31741 -0.20103,0.44441 -0.0776,0.11994 -0.17616,0.21901 -0.2961,0.29663 -0.11995,0.0776 -0.26476,0.1375 -0.43408,0.17983 -0.16934,0.0423 -0.37403,0.0706 -0.61392,0.0848 v 1.30173 h 1.24902 v 5.10098 h 2.01073 v -7.40833 z m 7.2812,0 c -0.0565,0.16933 -0.12343,0.31741 -0.20102,0.44441 -0.0776,0.11994 -0.17616,0.21901 -0.2961,0.29663 -0.11995,0.0776 -0.26475,0.1375 -0.43408,0.17983 -0.16934,0.0423 -0.37403,0.0706 -0.61392,0.0848 v 1.30173 h 1.24902 v 5.10098 h 2.01073 v -7.40833 z m 17.85421,0 -0.25373,3.84162 1.75648,0.59273 c 0.18344,-0.13405 0.37778,-0.2364 0.5824,-0.30696 0.2046,-0.0776 0.46539,-0.11627 0.78289,-0.11627 0.3175,0 0.56086,0.074 0.73019,0.22221 0.17639,0.14111 0.26459,0.35616 0.26459,0.64544 0,0.29633 -0.0986,0.52933 -0.29611,0.69866 -0.1905,0.16228 -0.52585,0.2434 -1.00562,0.2434 -0.40217,0 -0.81104,-0.067 -1.22732,-0.20102 -0.40922,-0.14111 -0.7941,-0.3175 -1.15393,-0.52917 l -0.83613,1.53427 c 0.45861,0.27517 0.93877,0.49402 1.43971,0.6563 0.508,0.16228 1.0829,0.24339 1.72496,0.24339 1.05831,0 1.87659,-0.23248 2.45514,-0.69815 0.58562,-0.46566 0.8785,-1.13256 0.8785,-2.00039 0,-0.40922 -0.0637,-0.76908 -0.19068,-1.07952 -0.127,-0.31045 -0.30667,-0.56468 -0.53951,-0.76223 -0.22578,-0.20461 -0.50123,-0.35598 -0.82578,-0.45475 -0.32456,-0.10584 -0.68769,-0.15917 -1.08986,-0.15917 -0.37394,0 -0.68426,0.0321 -0.93121,0.0956 -0.23989,0.0565 -0.46201,0.13379 -0.66663,0.23254 l 0.063,-1.02629 h 3.73621 v -1.67225 z m 6.82646,0 0.41238,3.46077 h 1.49241 l 0.4129,-3.46077 z m 3.62975,0 0.4129,3.46077 h 1.49241 l 0.41238,-3.46077 z m 7.21817,0 v 7.40833 h 1.96835 v -2.26498 -0.50798 c 0,-0.19049 -0.004,-0.37396 -0.0109,-0.55035 -0.007,-0.18344 -0.0141,-0.34896 -0.0212,-0.49713 -0.007,-0.15523 -0.0174,-0.27552 -0.0315,-0.36018 0.0494,0.0847 0.11964,0.20116 0.21136,0.34933 0.0988,0.14817 0.20112,0.30712 0.30695,0.47646 0.11289,0.16228 0.22611,0.32779 0.339,0.49712 0.11289,0.16228 0.21144,0.3 0.29611,0.4129 l 1.76733,2.44481 H 292.1 v -7.40833 h -1.96836 v 2.02158 0.50798 c 0,0.1905 0.004,0.37725 0.0109,0.56069 0.007,0.17638 0.0141,0.34241 0.0212,0.49764 0.007,0.14817 0.0175,0.26415 0.0315,0.34882 -0.0423,-0.0776 -0.1093,-0.19032 -0.20102,-0.33848 -0.0917,-0.14817 -0.19407,-0.30661 -0.30696,-0.47594 -0.11289,-0.16934 -0.22939,-0.33917 -0.34934,-0.5085 -0.11288,-0.16933 -0.21143,-0.31034 -0.2961,-0.42323 l -1.62988,-2.19056 z m -72.85551,1.16427 c 0.28223,0 0.51143,0.0915 0.68782,0.27491 0.17638,0.17639 0.26458,0.42356 0.26458,0.74104 0,0.33161 -0.0882,0.58912 -0.26458,0.77257 -0.17639,0.17638 -0.40559,0.26458 -0.68782,0.26458 -0.27516,0 -0.50437,-0.0882 -0.68781,-0.26458 -0.17639,-0.18345 -0.26458,-0.44096 -0.26458,-0.77257 0,-0.31748 0.0882,-0.56465 0.26458,-0.74104 0.18344,-0.18343 0.41265,-0.27491 0.68781,-0.27491 z m 17.26148,0.48679 c 0.40217,0 0.71249,0.17259 0.93121,0.51831 0.21872,0.34572 0.32815,0.86074 0.32815,1.54513 0,0.68438 -0.10615,1.19612 -0.31781,1.53479 -0.21167,0.33866 -0.51871,0.50798 -0.92088,0.50798 -0.40216,0 -0.71249,-0.1726 -0.93121,-0.51832 -0.21872,-0.34572 -0.32814,-0.86074 -0.32814,-1.54512 0,-0.68439 0.10614,-1.19613 0.31781,-1.53479 0.21166,-0.33867 0.51871,-0.50798 0.92087,-0.50798 z m -211.778802,0.40462 c -0.817866,0 -1.566739,0.14404 -2.246374,0.43202 -0.668117,0.28798 -1.249786,0.70245 -1.745113,1.24385 -0.483809,0.52989 -0.864039,1.18055 -1.140499,1.95234 -0.264943,0.77179 -0.397392,1.64152 -0.397392,2.60914 0,0.8985 0.115331,1.72795 0.345715,2.48822 0.241905,0.76027 0.592913,1.41698 1.053683,1.96991 0.472288,0.55292 1.048424,0.99055 1.72806,1.31309 0.691154,0.31102 1.48585,0.46664 2.38435,0.46664 0.714194,0 1.342202,-0.0866 1.883606,-0.25941 0.541405,-0.18431 1.007743,-0.4205 1.399398,-0.70849 0.403174,-0.28798 0.743114,-0.61582 1.019576,-0.98443 0.276462,-0.38014 0.518191,-0.77195 0.725537,-1.17513 l -2.833419,-1.50326 c -0.161268,0.28798 -0.316887,0.54129 -0.466638,0.76016 -0.14975,0.20734 -0.305369,0.38614 -0.466638,0.53588 -0.16127,0.13824 -0.339541,0.24146 -0.535368,0.31058 -0.195827,0.0691 -0.426487,0.10387 -0.691431,0.10387 -0.368615,0 -0.679335,-0.0861 -0.932759,-0.2589 -0.253424,-0.17279 -0.466967,-0.40899 -0.639754,-0.70849 -0.16127,-0.2995 -0.282134,-0.65103 -0.362769,-1.05419 -0.06912,-0.40318 -0.103353,-0.83528 -0.103353,-1.29605 0,-0.48381 0.03424,-0.92697 0.103353,-1.33015 0.08064,-0.40317 0.201499,-0.74917 0.362769,-1.03715 0.172787,-0.2995 0.38633,-0.52964 0.639754,-0.69091 0.253424,-0.17279 0.55256,-0.25942 0.898136,-0.25942 0.276463,0 0.512657,0.0463 0.708484,0.1385 0.195827,0.0806 0.368564,0.20149 0.518315,0.36276 0.14975,0.14975 0.282199,0.33961 0.397392,0.57 0.115191,0.23038 0.224988,0.48421 0.328662,0.76067 l 3.041158,-1.19217 c -0.207347,-0.56445 -0.443541,-1.06554 -0.708484,-1.50327 -0.264943,-0.44925 -0.593298,-0.82395 -0.984953,-1.12345 -0.380136,-0.31102 -0.84094,-0.54116 -1.382345,-0.69091 -0.529884,-0.16127 -1.163426,-0.24185 -1.900659,-0.24185 z m 10.29808,0.18966 -4.38888,12.09538 h 3.594096 l 0.656808,-2.12545 h 3.628202 l 0.656807,2.12545 h 3.628719 l -4.388879,-12.09538 z m 9.503296,0 v 12.09538 h 3.145027 v -2.88561 c 0,-0.59901 -0.0061,-1.16356 -0.01757,-1.69344 -0.01152,-0.5414 -0.02864,-1.04802 -0.05168,-1.52032 0.09215,0.23039 0.195899,0.4837 0.311092,0.76016 0.115193,0.27647 0.236057,0.559 0.362769,0.84698 0.12671,0.27646 0.253626,0.55294 0.380338,0.82941 0.126711,0.26494 0.241525,0.50667 0.345199,0.72553 l 1.590083,3.35225 1.589567,-3.35225 c 0.103674,-0.21886 0.218487,-0.46059 0.345199,-0.72553 0.126712,-0.27647 0.253627,-0.55295 0.380339,-0.82941 0.12671,-0.28798 0.247576,-0.57051 0.362768,-0.84698 0.115193,-0.27646 0.218938,-0.52977 0.311092,-0.76016 -0.02304,0.4723 -0.04016,0.97892 -0.05168,1.52032 -0.01152,0.52988 -0.01757,1.09443 -0.01757,1.69344 v 2.88561 h 3.145028 v -12.09538 h -3.041159 l -1.486214,3.23132 c -0.380134,0.82939 -0.702439,1.56114 -0.967383,2.1947 -0.264942,0.62204 -0.449264,1.1055 -0.552937,1.45108 -0.04607,-0.1728 -0.121116,-0.38582 -0.224793,-0.63924 -0.09215,-0.25343 -0.206969,-0.53544 -0.345198,-0.84646 -0.126712,-0.32254 -0.270747,-0.66248 -0.432015,-1.01958 -0.16127,-0.36862 -0.334007,-0.74884 -0.518315,-1.1405 l -1.486214,-3.23132 z m 14.583606,0 v 12.09538 h 3.300057 v -3.92224 H 57.5908 c 0.725712,0 1.387958,-0.069 1.986959,-0.20722 0.61052,-0.14975 1.134782,-0.38594 1.572514,-0.70848 0.437731,-0.33406 0.777155,-0.76616 1.019059,-1.29605 0.241904,-0.52989 0.362768,-1.18055 0.362768,-1.95234 0,-0.7257 -0.114813,-1.34213 -0.345198,-1.84898 -0.218866,-0.51836 -0.535637,-0.93283 -0.95033,-1.24385 -0.414692,-0.32254 -0.915787,-0.5532 -1.503267,-0.69143 -0.575963,-0.14975 -1.215556,-0.22479 -1.918229,-0.22479 z m 17.434078,0 v 12.09538 h 3.922757 c 1.07129,0 2.010019,-0.10374 2.816366,-0.31109 0.817866,-0.21887 1.503282,-0.56434 2.056205,-1.03663 0.552925,-0.4838 0.96739,-1.11182 1.243852,-1.8836 0.276462,-0.78332 0.414962,-1.74521 0.414962,-2.88562 0,-1.1404 -0.150085,-2.09071 -0.449585,-2.85099 -0.287981,-0.76025 -0.702447,-1.37063 -1.243852,-1.83141 -0.529885,-0.47228 -1.180546,-0.80618 -1.952336,-1.002 -0.771788,-0.19584 -1.630458,-0.29404 -2.575036,-0.29404 z m 12.406477,0 v 6.92929 c 0,0.9561 0.132449,1.77396 0.397392,2.4536 0.264943,0.67963 0.628052,1.23813 1.088823,1.67586 0.472288,0.42622 1.030789,0.73694 1.675866,0.93276 0.645078,0.19583 1.347612,0.29404 2.107882,0.29404 0.76027,0 1.463321,-0.0982 2.108398,-0.29404 0.656598,-0.19582 1.220632,-0.50654 1.69292,-0.93276 0.483809,-0.43773 0.858503,-0.99623 1.123446,-1.67586 0.276462,-0.67964 0.414445,-1.4975 0.414445,-2.4536 v -6.92929 h -3.42098 v 6.92929 c 0,0.74875 -0.150084,1.33595 -0.449585,1.76217 -0.287982,0.42621 -0.759855,0.63923 -1.416451,0.63923 -0.656596,0 -1.140571,-0.21302 -1.451591,-0.63923 -0.299501,-0.42622 -0.449068,-1.01342 -0.449068,-1.76217 v -6.92929 z m 12.993522,0 v 12.09538 h 3.300574 v -4.07778 h 1.347719 l 1.96991,4.07778 h 3.74912 l -2.41897,-4.61315 c 0.66811,-0.2995 1.19791,-0.73765 1.58957,-1.31362 0.39165,-0.57596 0.58756,-1.31878 0.58756,-2.2288 0,-0.71419 -0.11481,-1.31903 -0.3452,-1.81436 -0.21887,-0.50685 -0.53564,-0.91578 -0.95033,-1.2268 -0.41469,-0.31102 -0.91579,-0.53563 -1.50327,-0.67386 -0.57596,-0.14975 -1.21555,-0.22479 -1.91823,-0.22479 z m 15.775783,0 -4.38888,12.09538 h 3.5941 l 0.6568,-2.12545 h 3.6282 l 0.65681,2.12545 h 3.62872 l -4.38888,-12.09538 z m 9.50329,0 v 12.09538 h 3.21428 v -3.69745 -0.8294 c 0,-0.31102 -0.006,-0.61068 -0.0176,-0.89866 -0.0115,-0.2995 -0.0231,-0.57044 -0.0346,-0.81235 -0.0115,-0.25342 -0.0287,-0.44881 -0.0517,-0.58704 0.0806,0.13823 0.19596,0.32809 0.34571,0.56999 0.16127,0.2419 0.32796,0.50127 0.50075,0.77773 0.18431,0.26494 0.36863,0.53537 0.55294,0.81183 0.1843,0.26495 0.34597,0.48956 0.48421,0.67387 l 2.88509,3.99148 h 2.73007 v -12.09538 h -3.21376 v 3.30057 0.82941 c 0,0.31102 0.006,0.6162 0.0176,0.9157 0.0115,0.28799 0.0231,0.55842 0.0346,0.81184 0.0115,0.24191 0.0287,0.43228 0.0517,0.57051 -0.0691,-0.12671 -0.17839,-0.31103 -0.32815,-0.55294 -0.14975,-0.24191 -0.31695,-0.50127 -0.50126,-0.77773 -0.1843,-0.27646 -0.37416,-0.55294 -0.56999,-0.82941 -0.18431,-0.27646 -0.34597,-0.5066 -0.48421,-0.69091 l -2.66082,-3.57704 z m 12.56203,0 v 2.92023 h 3.38636 v 9.17515 h 3.35225 v -9.17515 h 3.38687 v -2.92023 z m 122.99663,1.82934 c 0.3951,0 0.70215,0.0811 0.92087,0.2434 0.21872,0.16227 0.32814,0.38768 0.32814,0.67696 0,0.29633 -0.12029,0.52226 -0.36018,0.67748 -0.23283,0.15522 -0.54316,0.23306 -0.93121,0.23306 -0.45155,0 -0.7831,-0.0811 -0.99477,-0.2434 -0.20461,-0.16932 -0.30696,-0.38817 -0.30696,-0.65629 0,-0.29633 0.10943,-0.52554 0.32815,-0.68781 0.21872,-0.16228 0.55735,-0.2434 1.01596,-0.2434 z m -200.371753,0.90072 h 1.814359 c 0.541405,0 0.921632,0.12087 1.140499,0.36277 0.218866,0.2419 0.328145,0.56472 0.328145,0.9679 0,0.46077 -0.11533,0.80624 -0.345715,1.03663 -0.230385,0.23039 -0.621682,0.34572 -1.174605,0.34572 h -1.762683 z m 42.834594,0 h 2.021579 c 0.52988,0 0.90407,0.12138 1.12293,0.36329 0.23039,0.2419 0.34572,0.55262 0.34572,0.93276 0,0.43773 -0.11533,0.77162 -0.34572,1.002 -0.23038,0.23039 -0.62168,0.34572 -1.1746,0.34572 h -1.969909 z m 148.159429,0.13643 c -0.33811,0.007 -0.61987,0.11976 -0.84542,0.33848 -0.22578,0.21872 -0.339,0.50453 -0.339,0.85731 0,0.35277 0.11322,0.64567 0.339,0.8785 0.23283,0.22578 0.52521,0.33848 0.87798,0.33848 0.35278,0 0.64239,-0.1127 0.86816,-0.33848 0.23284,-0.23283 0.34934,-0.52573 0.34934,-0.8785 0,-0.35278 -0.1165,-0.63859 -0.34934,-0.85731 -0.22577,-0.22578 -0.51538,-0.33848 -0.86816,-0.33848 -0.011,0 -0.0216,-2.2e-4 -0.0326,0 z m -173.473129,0.002 h 0.829407 c 0.518365,0 0.956001,0.0634 1.313098,0.19017 0.357096,0.11519 0.645164,0.29951 0.86403,0.55293 0.218864,0.25343 0.374483,0.58127 0.466638,0.98444 0.103673,0.40317 0.155546,0.88161 0.155546,1.43454 0,0.599 -0.05187,1.10562 -0.155546,1.52032 -0.103674,0.40317 -0.276411,0.73152 -0.518315,0.98495 -0.230384,0.24191 -0.530037,0.4207 -0.898653,0.53588 -0.368616,0.10368 -0.812302,0.15555 -1.330668,0.15555 h -0.725537 z m -43.231987,0.62218 c 0.03456,0.20735 0.07485,0.40879 0.120923,0.60461 0.04608,0.18432 0.09795,0.39181 0.155546,0.62219 0.06912,0.23039 0.144158,0.48923 0.224793,0.77721 0.08063,0.28799 0.172795,0.62793 0.276469,1.01958 l 0.224792,0.79478 h -2.004529 l 0.224793,-0.79478 c 0.103673,-0.38013 0.195833,-0.71402 0.276469,-1.00201 0.08063,-0.28798 0.149626,-0.54734 0.207222,-0.77773 0.06912,-0.23038 0.126523,-0.44341 0.1726,-0.63924 0.04608,-0.19582 0.08637,-0.39726 0.120922,-0.60461 z m 82.697276,0 c 0.0345,0.20735 0.0748,0.40879 0.12093,0.60461 0.0461,0.18432 0.0979,0.39181 0.15554,0.62219 0.0691,0.23039 0.14364,0.48923 0.22428,0.77721 0.0806,0.28799 0.17279,0.62793 0.27647,1.01958 l 0.22479,0.79478 h -2.00453 l 0.22479,-0.79478 c 0.10368,-0.38013 0.19584,-0.71402 0.27647,-1.00201 0.0806,-0.28798 0.14963,-0.54734 0.20722,-0.77773 0.0691,-0.23038 0.12652,-0.44341 0.1726,-0.63924 0.0461,-0.19582 0.0869,-0.39726 0.12144,-0.60461 z m 87.6329,4.45244 c -0.52211,0 -0.99467,0.0604 -1.41801,0.18035 -0.41626,0.11995 -0.76905,0.29634 -1.05833,0.52917 -0.28927,0.22578 -0.51191,0.504 -0.66714,0.83561 -0.15522,0.33161 -0.23255,0.70562 -0.23255,1.12189 0,0.39511 0.0632,0.73753 0.19017,1.02681 0.127,0.28222 0.30719,0.5185 0.54002,0.709 0.23284,0.1905 0.50778,0.33151 0.82528,0.42323 0.32455,0.0917 0.67733,0.13746 1.05833,0.13746 0.44449,0 0.81143,-0.0387 1.10071,-0.11627 0.29633,-0.0776 0.56471,-0.18324 0.8046,-0.31729 -0.14111,0.21166 -0.31423,0.40549 -0.51883,0.58187 -0.19756,0.17639 -0.43711,0.32827 -0.71934,0.45527 -0.28222,0.127 -0.61049,0.22555 -0.98443,0.29611 -0.37395,0.0635 -0.80457,0.0956 -1.2914,0.0956 v 1.68259 c 0.70555,0 1.32999,-0.067 1.87327,-0.20103 0.55033,-0.13405 1.03049,-0.31423 1.43971,-0.54001 0.40922,-0.23284 0.75492,-0.5007 1.03714,-0.80409 0.28222,-0.31045 0.50763,-0.63492 0.67696,-0.97358 0.17639,-0.33867 0.30376,-0.68437 0.38138,-1.03715 0.0776,-0.35277 0.11627,-0.69141 0.11627,-1.01596 0,-0.508 -0.0778,-0.95277 -0.23306,-1.33377 -0.15522,-0.38805 -0.37027,-0.70925 -0.64544,-0.96325 -0.27517,-0.26105 -0.60672,-0.45487 -0.99477,-0.58187 -0.38805,-0.127 -0.81488,-0.19069 -1.28054,-0.19069 z m 6.36033,0 c -0.32455,0 -0.62779,0.0604 -0.91002,0.18035 -0.27517,0.1129 -0.51853,0.27134 -0.73019,0.47594 -0.20461,0.20462 -0.36684,0.44797 -0.48679,0.73019 -0.11994,0.27517 -0.17983,0.57893 -0.17983,0.91054 0,0.33867 0.0599,0.64899 0.17983,0.93121 0.11995,0.28222 0.28218,0.52886 0.48679,0.74052 0.21166,0.20461 0.45502,0.36357 0.73019,0.47646 0.28223,0.11289 0.58547,0.1695 0.91002,0.1695 0.32455,0 0.62832,-0.0566 0.91054,-0.1695 0.28222,-0.11289 0.52557,-0.27185 0.73019,-0.47646 0.2046,-0.21166 0.36684,-0.4583 0.48679,-0.74052 0.11995,-0.28222 0.17983,-0.59254 0.17983,-0.93121 0,-0.33161 -0.0599,-0.63537 -0.17983,-0.91054 -0.11995,-0.28222 -0.28219,-0.52557 -0.48679,-0.73019 -0.20462,-0.2046 -0.44797,-0.36304 -0.73019,-0.47594 -0.28222,-0.11994 -0.58599,-0.18035 -0.91054,-0.18035 z m 9.77925,0 c -0.32455,0 -0.62452,0.025 -0.89969,0.0744 -0.27516,0.0494 -0.52887,0.11964 -0.76171,0.21135 -0.23283,0.0847 -0.45168,0.18702 -0.65629,0.30696 -0.19755,0.11289 -0.38102,0.23647 -0.55035,0.37052 l 0.97358,1.33377 c 0.28928,-0.20461 0.57838,-0.36029 0.86765,-0.46612 0.28928,-0.11289 0.61375,-0.16898 0.97358,-0.16898 0.36689,0 0.6282,0.0528 0.78342,0.15864 0.16228,0.0988 0.24339,0.24687 0.24339,0.44442 0,0.24695 -0.0637,0.41298 -0.19068,0.49764 -0.11995,0.0847 -0.34208,0.12661 -0.66663,0.12661 h -0.9524 v 1.59835 h 1.06867 c 0.381,0 0.64939,0.0528 0.80461,0.15865 0.16227,0.10583 0.24339,0.2893 0.24339,0.55035 0,0.254 -0.0953,0.44455 -0.28577,0.57155 -0.1905,0.11992 -0.50082,0.17983 -0.93121,0.17983 -0.40922,0 -0.78703,-0.0702 -1.13275,-0.21136 -0.34572,-0.14111 -0.67019,-0.32837 -0.97358,-0.5612 l -1.05833,1.33377 c 0.40216,0.35276 0.86437,0.63151 1.38648,0.83612 0.52209,0.19755 1.10081,0.29611 1.73581,0.29611 0.50094,0 0.95228,-0.0457 1.35444,-0.13746 0.40216,-0.0988 0.74079,-0.24687 1.01595,-0.44442 0.28222,-0.20461 0.49779,-0.46212 0.64596,-0.77256 0.15522,-0.31045 0.23254,-0.68118 0.23254,-1.11156 0,-0.23284 -0.0354,-0.44083 -0.10593,-0.62425 -0.0706,-0.18345 -0.16583,-0.33861 -0.28577,-0.46561 -0.11289,-0.13405 -0.2501,-0.2402 -0.41238,-0.31781 -0.15522,-0.0847 -0.31746,-0.14784 -0.48679,-0.19017 0.127,-0.0635 0.25005,-0.13423 0.37,-0.21187 0.11994,-0.0847 0.22229,-0.18322 0.30696,-0.29611 0.0917,-0.11994 0.16577,-0.25439 0.22221,-0.40256 0.0565,-0.15522 0.0848,-0.33489 0.0848,-0.5395 0,-0.38805 -0.0703,-0.71632 -0.21136,-0.98444 -0.14111,-0.27516 -0.34252,-0.49729 -0.60358,-0.66662 -0.26105,-0.16933 -0.57466,-0.28911 -0.94155,-0.35967 -0.35983,-0.0776 -0.76214,-0.11679 -1.20664,-0.11679 z m 7.09052,0 c -0.32456,0 -0.62401,0.025 -0.89917,0.0744 -0.27516,0.0494 -0.52939,0.11964 -0.76222,0.21135 -0.23284,0.0847 -0.45168,0.18702 -0.6563,0.30696 -0.19755,0.11289 -0.38102,0.23647 -0.55035,0.37052 l 0.9741,1.33377 c 0.28927,-0.20461 0.57837,-0.36029 0.86765,-0.46612 0.28927,-0.11289 0.61375,-0.16898 0.97358,-0.16898 0.36689,0 0.6282,0.0528 0.78342,0.15864 0.16228,0.0988 0.24339,0.24687 0.24339,0.44442 0,0.24695 -0.0637,0.41298 -0.19068,0.49764 -0.11995,0.0847 -0.34208,0.12661 -0.66663,0.12661 h -0.9524 v 1.59835 h 1.06867 c 0.381,0 0.64887,0.0528 0.80409,0.15865 0.16228,0.10583 0.24339,0.2893 0.24339,0.55035 0,0.254 -0.0948,0.44455 -0.28525,0.57155 -0.1905,0.11992 -0.50134,0.17983 -0.93173,0.17983 -0.40921,0 -0.78651,-0.0702 -1.13223,-0.21136 -0.34572,-0.14111 -0.67019,-0.32837 -0.97358,-0.5612 l -1.05833,1.33377 c 0.40216,0.35276 0.86437,0.63151 1.38648,0.83612 0.5221,0.19755 1.1003,0.29611 1.73529,0.29611 0.50095,0 0.9528,-0.0457 1.35496,-0.13746 0.40216,-0.0988 0.7408,-0.24687 1.01595,-0.44442 0.28222,-0.20461 0.49728,-0.46212 0.64544,-0.77256 0.15523,-0.31045 0.23306,-0.68118 0.23306,-1.11156 0,-0.23284 -0.0354,-0.44083 -0.10593,-0.62425 -0.0706,-0.18345 -0.16583,-0.33861 -0.28577,-0.46561 -0.11289,-0.13405 -0.25062,-0.2402 -0.4129,-0.31781 -0.15522,-0.0847 -0.31746,-0.14784 -0.48679,-0.19017 0.127,-0.0635 0.25057,-0.13423 0.37052,-0.21187 0.11994,-0.0847 0.22229,-0.18322 0.30696,-0.29611 0.0917,-0.11994 0.16577,-0.25439 0.22221,-0.40256 0.0565,-0.15522 0.0847,-0.33489 0.0847,-0.5395 0,-0.38805 -0.0708,-0.71632 -0.21188,-0.98444 -0.1411,-0.27516 -0.34201,-0.49729 -0.60306,-0.66662 -0.26106,-0.16933 -0.57518,-0.28911 -0.94206,-0.35967 -0.35984,-0.0776 -0.76215,-0.11679 -1.20665,-0.11679 z m 36.86184,0 c -0.4445,0 -0.85717,0.0495 -1.23817,0.14831 -0.37395,0.0917 -0.69843,0.23273 -0.97359,0.42323 -0.26811,0.18344 -0.47988,0.41317 -0.6351,0.68833 -0.14817,0.27517 -0.22221,0.58877 -0.22221,0.94155 0,0.33866 0.0811,0.62119 0.2434,0.84697 0.16933,0.22578 0.36695,0.40545 0.59273,0.53951 -0.11995,0.0494 -0.24732,0.11636 -0.38138,0.20102 -0.13405,0.0847 -0.2609,0.19409 -0.38085,0.32814 -0.11289,0.13406 -0.20816,0.29301 -0.28577,0.47646 -0.0705,0.17639 -0.10594,0.38436 -0.10594,0.62425 0,0.37394 0.0778,0.71257 0.23306,1.01596 0.15522,0.29633 0.37735,0.55056 0.66663,0.76223 0.29633,0.20461 0.64911,0.36305 1.05833,0.47594 0.41627,0.11288 0.88556,0.1695 1.40767,0.1695 0.51505,0 0.98054,-0.0566 1.39681,-0.1695 0.42333,-0.11289 0.77991,-0.27133 1.06919,-0.47594 0.29633,-0.21167 0.52226,-0.4659 0.67748,-0.76223 0.16227,-0.30339 0.24339,-0.64202 0.24339,-1.01596 0,-0.23989 -0.0392,-0.45166 -0.11679,-0.6351 -0.0705,-0.18345 -0.16582,-0.34189 -0.28577,-0.47594 -0.11288,-0.13406 -0.23594,-0.24348 -0.37,-0.32815 -0.13405,-0.0917 -0.26143,-0.16248 -0.38137,-0.21187 0.23282,-0.14817 0.43045,-0.32784 0.59273,-0.5395 0.16228,-0.21167 0.24339,-0.48713 0.24339,-0.82579 0,-0.35278 -0.074,-0.66638 -0.22221,-0.94155 -0.14816,-0.27516 -0.35993,-0.50489 -0.6351,-0.68833 -0.26811,-0.1905 -0.58879,-0.3315 -0.96273,-0.42323 -0.37395,-0.0988 -0.78335,-0.14831 -1.22783,-0.14831 z m 7.65172,0 c -0.47976,0 -0.92782,0.0849 -1.3441,0.25425 -0.40922,0.16933 -0.76528,0.41649 -1.06867,0.74104 -0.29633,0.32455 -0.52933,0.72635 -0.69866,1.20613 -0.16934,0.47272 -0.25425,1.01605 -0.25425,1.62987 0,0.61384 0.0849,1.16096 0.25425,1.64073 0.16933,0.47273 0.40233,0.87124 0.69866,1.19579 0.29634,0.3175 0.64912,0.56086 1.05834,0.73019 0.40922,0.16228 0.85347,0.2434 1.33325,0.2434 0.47977,0 0.92403,-0.0849 1.33325,-0.25425 0.41628,-0.16934 0.77287,-0.41597 1.06918,-0.74053 0.3034,-0.32455 0.53967,-0.72307 0.70901,-1.19579 0.16932,-0.47978 0.25424,-1.02691 0.25424,-1.64072 0,-0.61384 -0.0849,-1.15716 -0.25424,-1.62988 -0.16934,-0.47978 -0.40234,-0.8783 -0.69867,-1.19579 -0.29633,-0.32456 -0.64911,-0.56792 -1.05833,-0.73019 -0.40922,-0.16933 -0.85348,-0.25425 -1.33326,-0.25425 z m -78.12598,0.11679 v 1.67225 h 3.68298 c -0.35983,0.36689 -0.67394,0.75453 -0.94206,1.16375 -0.26105,0.40217 -0.48318,0.83607 -0.66662,1.30173 -0.17639,0.46567 -0.31033,0.97033 -0.40205,1.51361 -0.0847,0.5362 -0.1304,1.122 -0.13746,1.75699 h 2.01073 c 0,-0.59972 0.0316,-1.15392 0.0951,-1.66191 0.0705,-0.508 0.19741,-0.99471 0.38085,-1.46038 0.1905,-0.46566 0.45181,-0.92407 0.78342,-1.37562 0.33867,-0.45156 0.77964,-0.92792 1.32292,-1.42886 v -1.48156 z m 37.68711,0 0.41289,3.46077 h 1.4919 l 0.4129,-3.46077 z m 8.43514,0 c -0.0565,0.16933 -0.12343,0.31742 -0.20102,0.44442 -0.0776,0.11994 -0.17668,0.21849 -0.29662,0.2961 -0.11995,0.0776 -0.26475,0.1375 -0.43408,0.17984 -0.16934,0.0423 -0.37352,0.0706 -0.6134,0.0848 v 1.30173 h 1.2485 v 5.10149 h 2.01073 v -7.40833 z m 6.94222,0 -0.25374,3.84163 1.757,0.59273 c 0.18345,-0.13406 0.37727,-0.23641 0.58188,-0.30696 0.20461,-0.0776 0.46591,-0.11627 0.78341,-0.11627 0.3175,0 0.56086,0.074 0.73019,0.2222 0.17639,0.14112 0.26459,0.35616 0.26459,0.64544 0,0.29633 -0.0991,0.52933 -0.29663,0.69867 -0.1905,0.16228 -0.52532,0.24339 -1.0051,0.24339 -0.40216,0 -0.81156,-0.067 -1.22784,-0.20102 -0.40922,-0.14111 -0.79358,-0.3175 -1.15341,-0.52916 l -0.83613,1.53427 c 0.45861,0.27517 0.93824,0.49402 1.43919,0.65629 0.508,0.16228 1.08291,0.2434 1.72496,0.2434 1.05832,0 1.87711,-0.233 2.45566,-0.69867 0.58562,-0.46566 0.87799,-1.13205 0.87799,-1.99988 0,-0.40922 -0.0632,-0.76907 -0.19017,-1.07952 -0.127,-0.31044 -0.30719,-0.56467 -0.54002,-0.76223 -0.22578,-0.20461 -0.50072,-0.35649 -0.82527,-0.45527 -0.32456,-0.10582 -0.68821,-0.15864 -1.09038,-0.15864 -0.37394,0 -0.68426,0.0321 -0.93121,0.0956 -0.23988,0.0565 -0.46201,0.13378 -0.66662,0.23254 l 0.0636,-1.02629 h 3.73569 v -1.67225 z m 7.30291,0 -0.25425,3.84163 1.757,0.59273 c 0.18344,-0.13406 0.37726,-0.23641 0.58188,-0.30696 0.2046,-0.0776 0.46591,-0.11627 0.78341,-0.11627 0.3175,0 0.56086,0.074 0.73019,0.2222 0.17639,0.14112 0.26458,0.35616 0.26458,0.64544 0,0.29633 -0.0991,0.52933 -0.29662,0.69867 -0.1905,0.16228 -0.52533,0.24339 -1.00511,0.24339 -0.40216,0 -0.81155,-0.067 -1.22783,-0.20102 -0.40922,-0.14111 -0.79358,-0.3175 -1.15342,-0.52916 l -0.83612,1.53427 c 0.45861,0.27517 0.93825,0.49402 1.43919,0.65629 0.508,0.16228 1.0829,0.2434 1.72496,0.2434 1.05831,0 1.87711,-0.233 2.45566,-0.69867 0.58561,-0.46566 0.8785,-1.13205 0.8785,-1.99988 0,-0.40922 -0.0637,-0.76907 -0.19069,-1.07952 -0.127,-0.31044 -0.30718,-0.56467 -0.54002,-0.76223 -0.22577,-0.20461 -0.50071,-0.35649 -0.82527,-0.45527 -0.32455,-0.10582 -0.68769,-0.15864 -1.08985,-0.15864 -0.37394,0 -0.68478,0.0321 -0.93173,0.0956 -0.23989,0.0565 -0.46202,0.13378 -0.66663,0.23254 l 0.0636,-1.02629 h 3.73569 v -1.67225 z m 22.08702,0 0.4129,3.46077 h 1.49241 l 0.41238,-3.46077 z m 3.63027,0 0.4129,3.46077 h 1.4919 l 0.41289,-3.46077 z m 6.86832,0 1.76733,7.40833 h 1.87327 l 0.339,-1.60868 c 0.0635,-0.28222 0.12336,-0.57512 0.17983,-0.8785 0.0565,-0.31045 0.106,-0.60334 0.14831,-0.8785 0.0494,-0.28223 0.0881,-0.53646 0.11628,-0.76223 0.0282,-0.23283 0.0494,-0.41578 0.0636,-0.54984 0.007,0.13406 0.0245,0.31701 0.0527,0.54984 0.0353,0.22577 0.0739,0.48 0.11627,0.76223 0.0494,0.27516 0.10273,0.56805 0.15916,0.8785 0.0565,0.30338 0.11636,0.59628 0.17984,0.8785 l 0.33848,1.60868 h 1.89446 l 1.7673,-7.40826 h -2.09548 l -0.20102,1.23817 c -0.0423,0.26105 -0.0881,0.53599 -0.13746,0.82527 l -0.12712,0.84698 c -0.0353,0.28222 -0.0707,0.55716 -0.10594,0.82527 -0.0282,0.26105 -0.0527,0.50113 -0.0739,0.71985 -0.0211,-0.21872 -0.0528,-0.4588 -0.0951,-0.71985 -0.0353,-0.26105 -0.0777,-0.52892 -0.12713,-0.80409 -0.0494,-0.28222 -0.10221,-0.56475 -0.15864,-0.84697 -0.0565,-0.28928 -0.11308,-0.56801 -0.1695,-0.83613 l -0.25373,-1.2485 h -1.88413 l -0.25373,1.2485 c -0.0565,0.26812 -0.11307,0.54685 -0.1695,0.83613 -0.0565,0.28222 -0.10928,0.56475 -0.15864,0.84697 -0.0494,0.27517 -0.0951,0.54304 -0.13746,0.80409 -0.0353,0.26105 -0.0636,0.50113 -0.0848,0.71985 -0.0211,-0.21872 -0.0494,-0.4588 -0.0847,-0.71985 -0.0282,-0.26811 -0.0636,-0.54305 -0.10594,-0.82527 -0.0353,-0.28222 -0.0777,-0.56476 -0.12712,-0.84698 -0.0423,-0.28928 -0.0848,-0.56422 -0.12713,-0.82527 l -0.20102,-1.23817 z m -76.21034,1.16375 c 0.28222,0 0.51194,0.092 0.68833,0.27544 0.17639,0.17639 0.26458,0.42355 0.26458,0.74104 0,0.33161 -0.0882,0.58912 -0.26458,0.77256 -0.17639,0.17639 -0.40611,0.26459 -0.68833,0.26459 -0.27517,0 -0.50437,-0.0882 -0.68781,-0.26459 -0.17639,-0.18344 -0.26459,-0.44095 -0.26459,-0.77256 0,-0.31749 0.0882,-0.56465 0.26459,-0.74104 0.18344,-0.18344 0.41264,-0.27544 0.68781,-0.27544 z m 53.71042,0.21188 c 0.19755,0 0.36686,0.0212 0.50798,0.0636 0.1411,0.0423 0.25381,0.0989 0.33848,0.1695 0.0917,0.0706 0.15541,0.15167 0.19068,0.24339 0.0423,0.0847 0.0636,0.17287 0.0636,0.26459 0,0.18344 -0.0811,0.34896 -0.2434,0.49712 -0.15523,0.14112 -0.43398,0.21188 -0.83612,0.21188 -0.40217,0 -0.68798,-0.0708 -0.85732,-0.21188 -0.16228,-0.14816 -0.24339,-0.31368 -0.24339,-0.49712 0,-0.0917 0.0174,-0.17992 0.0527,-0.26459 0.0353,-0.0917 0.0957,-0.17284 0.18035,-0.24339 0.0847,-0.0706 0.19357,-0.12717 0.32763,-0.1695 0.1411,-0.0423 0.31421,-0.0636 0.51883,-0.0636 z m -60.17669,0.12712 c 0.45155,0 0.77982,0.0844 0.98444,0.25373 0.21166,0.16228 0.31729,0.37785 0.31729,0.64596 0,0.29633 -0.10942,0.52553 -0.32815,0.68781 -0.21872,0.16227 -0.55735,0.2434 -1.01596,0.2434 -0.3951,0 -0.70215,-0.0811 -0.92087,-0.2434 -0.21872,-0.16228 -0.32763,-0.3882 -0.32763,-0.67748 0,-0.29633 0.11598,-0.52226 0.34882,-0.67748 0.23988,-0.15521 0.55401,-0.23254 0.94206,-0.23254 z m 67.82842,0.14831 c 0.40216,0 0.71248,0.1726 0.93121,0.51832 0.21872,0.34572 0.32814,0.86074 0.32814,1.54512 0,0.68439 -0.10562,1.19613 -0.31729,1.53479 -0.21167,0.33867 -0.51871,0.50798 -0.92088,0.50798 -0.40215,0 -0.71248,-0.17311 -0.9312,-0.51883 -0.21872,-0.34572 -0.32815,-0.86075 -0.32815,-1.54512 0,-0.68439 0.10563,-1.19561 0.31729,-1.53428 0.21167,-0.33866 0.51871,-0.50798 0.92088,-0.50798 z m -7.65173,2.55023 c 0.46566,0 0.81844,0.0849 1.05833,0.25425 0.23989,0.16228 0.35967,0.37025 0.35967,0.62425 0,0.254 -0.1165,0.46577 -0.34933,0.63511 -0.23284,0.16933 -0.58184,0.25373 -1.04748,0.25373 -0.46567,0 -0.81845,-0.0844 -1.05834,-0.25373 -0.23989,-0.16934 -0.35967,-0.38111 -0.35967,-0.63511 0,-0.254 0.1127,-0.46197 0.33848,-0.62425 0.23284,-0.16933 0.58562,-0.25425 1.05834,-0.25425 z m -20.18223,0.91003 c -0.35278,0 -0.64567,0.11322 -0.8785,0.33899 -0.22578,0.21873 -0.33848,0.50454 -0.33848,0.85732 0,0.35278 0.1127,0.64566 0.33848,0.8785 0.23283,0.22576 0.52572,0.33848 0.8785,0.33848 0.35278,0 0.64187,-0.11272 0.86764,-0.33848 0.23284,-0.23284 0.34934,-0.52572 0.34934,-0.8785 0,-0.35278 -0.1165,-0.63859 -0.34934,-0.85732 -0.22577,-0.22577 -0.51486,-0.33899 -0.86764,-0.33899 z" /></g></svg>
