<?xml version="1.0" encoding="UTF-8" standalone="no"?>
<!-- Created with Inkscape (http://www.inkscape.org/) -->

<svg
   width="12in"
   height="12in"
   viewBox="0 0 304.8 304.8"
   version="1.1"
   id="svg5"
   xml:space="preserve"
   xmlns="http://www.w3.org/2000/svg"
   xmlns:svg="http://www.w3.org/2000/svg"><defs
     id="defs2" /><g
     id="layer5"
     style="display:inline"><path
       id="path7384-3"
       clip-path="none"
       style="display:inline;fill:#00ffff;stroke:none;stroke-width:0.25"
       d="M 0,0 V 304.8 H 304.8 V 0 Z M 271.2036,12.7 H 292.1 v 1.230416 c -2.87986,2.019783 -1.29773,5.830821 0,5.672522 v 92.184552 c -1.64337,0.83372 -3.28299,1.73409 -4.74028,2.46445 -7.51658,3.76634 -15.17062,14.46112 -15.88999,22.98154 -0.25263,2.99901 3.49462,3.6864 3.55844,6.39445 0.034,1.60176 -1.63737,2.79765 -3.01532,3.1781 -1.50263,0.41565 -4.04733,-0.14692 -5.14077,1.14153 -0.82802,0.97827 -0.84416,2.48432 -1.08055,3.67368 -0.54352,2.70163 -3.05694,11.5575 2.06499,11.43289 1.96628,-0.048 3.67671,-2.22217 5.11545,-3.3476 2.83912,-2.22205 6.08796,-3.7468 7.78247,-7.12618 1.7169,-3.421 1.32972,-7.89713 3.63492,-10.85773 1.39079,-1.78083 3.77312,-2.0464 5.52834,-3.37964 0.70631,-0.53456 1.43948,-1.04746 2.1823,-1.55185 v 54.73775 c -1.49848,1.36242 -3.12623,2.61571 -4.331,4.07934 -1.74889,2.11964 -2.00155,5.50259 -3.776,7.80779 -3.61604,4.69986 -9.60122,8.92661 -11.47475,14.70711 -0.73539,2.26045 -5.23094,8.49182 -3.18792,10.72028 1.55705,1.70085 4.98768,-0.97561 3.64164,-3.04736 l 5.18263,-4.45348 6.32726,-3.8685 4.12791,-1.46141 3.49023,-4.82657 V 279.4 h -0.001 -36.28771 -27.96005 c 0.93798,-2.71341 0.95793,-5.7444 2.10375,-8.52351 1.74884,-4.24267 5.0868,-6.99867 7.74681,-10.55078 0.96252,-1.28207 1.10036,-3.52958 -0.29042,-4.60385 -0.52116,-0.40277 -1.2326,-0.53776 -1.96836,-0.56793 -0.73576,-0.0302 -1.49594,0.0443 -2.1146,0.0594 -3.75988,0.0993 -7.73086,1.37824 -11.50989,1.82263 -3.07252,0.36441 -5.92151,-0.46699 -8.95242,-0.54364 -3.35699,-0.0801 -6.04262,1.06453 -9.27179,1.44178 -1.70413,0.19863 -3.39534,-0.20104 -5.11545,0.17621 -1.89276,0.41886 -3.06001,2.26998 -4.79609,3.06287 -2.54816,1.16055 -6.22147,1.88608 -8.95191,2.43602 -2.62486,0.52754 -4.98146,-2.36552 -7.67033,-0.98753 -4.17231,2.1421 -0.69043,8.73797 -4.52065,10.44845 -1.75844,0.78652 -5.04859,-4.02246 -7.31222,-4.36459 -1.89276,-0.28473 -3.31222,0.72909 -5.11545,0.8537 -3.57767,0.24621 -5.85063,-0.9429 -9.25887,1.35909 -1.53141,1.0359 -2.33072,2.81639 -3.84937,3.90984 -2.20079,1.58522 -4.3471,2.36668 -5.99395,4.57181 H 91.869845 c 0.154708,-0.13443 0.302929,-0.28055 0.46147,-0.40876 2.001439,-1.61777 4.520981,-2.76871 6.289022,-4.65501 1.598603,-1.70731 1.569603,-5.96597 3.085083,-7.01146 3.33468,-2.3052 5.78392,1.07425 7.57111,3.23236 1.50269,-1.15099 2.90953,-2.42364 2.83601,-4.47621 -0.0831,-2.19965 -2.06238,-2.96351 -2.83291,-4.79868 -0.98789,-2.35633 -1.8796,-6.07811 -2.13216,-8.62944 -0.22381,-2.2572 0.88853,-3.95146 -1.06816,-5.75469 l -3.83646,-1.91875 3.83646,-4.15633 c 5.51118,-3.96697 -0.017,-8.59688 -4.7625,-8.55504 -0.6779,0.008 -1.339837,0.10765 -1.951299,0.31988 -2.273199,0.79293 -4.69664,2.0779 -6.106604,4.07934 -1.294858,1.84798 -1.915527,4.51118 -3.817855,5.8508 -2.433058,1.71052 -5.59493,0.43515 -8.299752,1.28881 -3.56806,1.1286 -7.247861,4.72868 -9.856762,7.3024 -5.838064,5.76136 -9.042137,12.91005 -14.282333,19.07429 -2.519379,2.96381 -5.681197,4.49892 -8.472351,7.11739 -0.594401,0.55801 -1.054339,1.32577 -1.505334,2.0991 H 27.951782 c 2.787649,-1.8701 5.605951,-3.8024 7.610388,-6.35155 2.596123,-3.30273 3.945057,-7.87164 6.234245,-11.38535 1.074257,-1.64976 3.127011,-2.55114 4.287594,-4.2137 1.454731,-2.0781 0.690397,-4.16919 1.374593,-6.39444 0.495566,-1.60501 1.761583,-2.74334 1.969389,-4.47621 0.524336,-4.31944 -5.150665,-5.00039 -6.995439,-8.31267 -0.463589,-0.82805 -1.362053,-2.07822 -1.007174,-3.0949 0.482779,-1.38436 3.040815,0.0735 3.907255,0.29403 2.96699,0.75774 5.077284,-0.53064 5.553667,-3.59358 0.51155,-3.29948 -2.625039,-6.15415 -5.553667,-6.94066 -1.157379,-0.31003 -3.37321,-0.0583 -4.098974,-1.15496 -1.51866,-2.29878 1.59214,-6.4069 -1.69137,-8.20054 -1.99824,-1.09023 -4.728579,1.70775 -6.483842,0.56638 -1.205338,-0.7833 1.080533,-4.29392 0.722437,-5.69113 -0.6842,-2.66005 -4.216745,-6.31442 -6.099886,-8.27753 -1.770447,-1.84839 -4.047978,-2.42668 -6.366537,-2.36626 -1.391129,0.0378 -2.79702,0.30209 -4.117061,0.66197 -1.157757,0.31418 -2.875177,0.77269 -4.4974,1.31103 v -23.96856 c 3.193579,-2.20116 8.453217,-5.93394 7.78092,-9.56376 -0.463592,-2.50342 -2.951441,-3.98411 -5.202266,-4.65553 C 14.489596,163.35688 13.61026,163.18671 12.7,163.04586 V 81.803276 c 2.704739,3.259096 6.180386,5.346139 9.919808,3.322277 2.369115,-1.282059 3.663752,-4.369883 5.32629,-6.400126 0.674604,-0.828048 1.873832,-1.767892 2.043286,-2.877344 0.185451,-1.240483 -1.442048,-2.488345 -0.885734,-3.680912 0.348508,-0.744933 1.49618,-1.185283 2.055688,-1.789555 1.314041,-1.41638 2.004793,-3.222715 2.423625,-5.08031 0.508564,-2.256738 -0.463636,-3.861873 0.469739,-4.051949 0.933375,-0.190075 1.986516,2.118252 4.245735,2.623096 2.43307,0.543546 5.195616,-1.17654 7.673434,-0.808736 -1.505873,2.608834 -3.900365,4.51759 -5.530929,7.033679 -2.148511,3.31869 -2.79462,6.905976 -4.044714,10.550777 -1.157388,3.373066 -2.803958,7.184277 -2.410706,10.870654 0.147084,1.365216 1.845032,4.952501 2.813782,5.950025 1.058269,1.090232 3.241637,1.377889 2.883545,3.321758 -0.438012,2.36596 -2.982693,3.51025 -3.68608,5.75469 -0.700177,2.23485 0.262193,4.20113 0.342098,6.39444 0.211015,5.78692 -1.285547,13.38083 4.319116,17.66817 3.011749,2.30199 5.518795,-3.93256 8.143689,-2.85512 1.141391,0.46682 0.844004,1.83847 1.198894,2.76882 0.578692,1.50905 3.481434,5.38405 5.24309,5.30097 1.461117,-0.0672 3.03412,-1.5574 4.156336,-2.38228 2.931818,-2.16129 5.483476,-5.1442 8.952425,-6.43268 0.629849,2.51934 -1.090088,4.91094 -1.492932,7.35355 -0.316523,1.90873 0.715863,3.0377 1.035596,4.79609 0.617058,3.42097 1.058199,10.64661 5.252909,12.09177 2.490608,0.86004 5.195811,-5.1828 7.034196,-6.34018 2.481012,-1.55709 5.284773,-1.02327 7.992794,-1.68827 3.79506,-0.93038 7.632063,-3.17172 11.190531,-4.80229 1.975869,-0.9046 3.666909,-1.96928 5.754689,-0.8599 -2.68885,3.26753 -5.00059,8.29356 -5.569687,12.46901 -0.316524,2.3052 -0.02568,4.76058 2.375567,5.85081 2.13253,0.96875 5.32678,1.78458 7.67033,1.45831 1.61778,-0.23035 3.13307,-1.17989 4.79557,-0.5948 l 1.279,-1.27899 c 2.73996,2.80075 6.15485,-4.56248 7.61917,-6.39444 3.3059,-4.14358 0.48911,-8.84676 2.5001,-13.09585 0.60108,-1.26923 1.89273,-1.70067 2.78795,-2.69182 1.61458,-1.79034 4.09568,-5.47669 4.49533,-7.87135 0.55312,-3.32191 -4.12429,-5.0452 -5.54385,-7.36958 -1.6689,-2.73683 -0.75816,-6.97007 -2.26084,-9.89552 -0.93359,-1.81923 -2.05539,-3.96151 -3.5357,-5.38107 -1.34602,-1.2917 -3.76333,-2.69526 -4.40593,-4.53047 -0.77372,-2.202856 3.56822,-2.260259 4.62969,-3.305742 1.43234,-1.41317 1.39697,-3.462829 1.61437,-5.326806 0.71936,-6.074682 -1.01671,-11.903212 -1.38441,-17.904334 -0.26218,-4.258664 0.66197,-9.108735 0.85059,-13.428121 0.12148,-2.797569 1.44829,-11.55467 5.42241,-7.353556 l 0.95911,-3.517098 c 1.18297,2.458653 0.36443,5.070906 0.36122,7.673433 -0.006,3.01814 0.85718,6.304815 0.53744,9.271786 -0.54353,5.029199 -2.71757,11.619051 -0.90796,16.625858 1.1478,3.171605 4.58476,5.131149 6.63732,7.672917 2.25403,2.79436 2.83581,6.960306 5.26893,9.559623 3.81426,4.06367 8.11116,2.13584 12.40183,1.125513 1.06146,-0.249231 2.15815,0.185525 3.19722,-0.19172 1.18936,-0.428409 2.00785,-1.515658 3.19722,-1.944067 0.94318,-0.339106 1.9374,0.03807 2.87734,-0.272335 1.04228,-0.342126 1.75886,-1.21154 2.87787,-1.387512 5.97233,-0.949566 12.4592,3.356858 17.89761,-0.217558 4.51766,-2.970105 -0.71263,-5.709564 1.10019,-8.590173 0.52436,-0.831257 1.81906,-2.682536 2.81017,-2.957442 0.83447,-0.233371 1.59517,0.482371 2.43602,0.12454 1.68167,-0.719372 3.48513,-3.260985 4.85035,-4.520655 0.70019,2.372294 -0.61031,5.259016 1.37511,7.2285 1.39079,1.377976 4.9972,2.078517 6.90914,1.851566 1.65935,-0.195227 2.99247,-1.1609 4.5527,0.40566 1.36839,1.37798 0.13747,3.328492 0.56275,4.90151 0.87922,3.225869 2.1451,4.680561 4.50464,7.033683 1.24691,-1.016722 3.08229,-2.218658 3.56825,-3.836462 1.2437,-4.127554 -4.40607,-7.986529 -3.47885,-12.469006 0.81208,-3.926134 5.85131,-3.002245 8.05739,-5.572787 2.24119,-2.615291 0.56907,-8.12089 3.23236,-10.534757 1.35559,-1.230934 3.11403,0.786384 3.38894,2.039668 1.0487,4.786128 -2.37537,11.580379 4.73511,13.626559 3.5489,1.019917 6.36538,-1.15087 8.95191,-3.219442 4.36098,-3.481743 7.66681,-6.004391 10.3141,-11.046354 0.90482,-1.723312 2.87163,-3.657932 2.68924,-5.755204 -0.19523,-2.215656 -2.8264,-3.228975 -4.05092,-4.795573 2.86469,-0.892017 5.33292,1.610943 8.31267,0.235644 2.22839,-1.026299 4.99389,-1.796912 6.58927,-3.759977 1.2437,-1.52827 1.30434,-3.941979 2.79104,-5.22087 1.45155,-1.243697 3.66425,-0.850533 5.32681,-1.65623 2.00782,-0.971959 2.4876,-3.17152 4.20129,-4.124296 1.34283,-0.744782 3.01811,-0.434819 4.43125,-1.077453 3.47854,-1.585786 7.04992,-7.008267 5.22759,-10.928015 -0.83768,-1.80643 -2.55157,-1.877104 -4.26847,-2.247925 -3.39864,-0.738551 -6.12912,-0.62384 -9.59166,-0.227377 -1.40997,0.163133 -4.17249,0.418711 -5.31389,-0.645955 -0.91759,-0.85686 0.122,-1.927885 0.84439,-2.480985 1.28207,-0.984762 5.42847,-2.000952 4.86895,-4.274158 -0.44118,-1.789358 -3.29598,-0.566566 -3.65094,-2.036568 -0.35795,-1.498857 1.91191,-2.733305 2.29237,-4.079338 0.40605,-1.436168 -0.88232,-2.505544 -1.11569,-3.837492 -0.008,-0.05324 -0.008,-0.107607 -0.015,-0.16123 z M 155.95637,24.406262 h 5.17126 c 1.15382,0 2.20176,0.119946 3.14451,0.359151 0.94276,0.239206 1.73813,0.647307 2.38539,1.224215 0.66133,0.562837 1.16751,1.308392 1.51928,2.237073 0.36585,0.92868 0.54881,2.089454 0.54881,3.482475 0,1.393021 -0.16873,2.568027 -0.50643,3.524849 -0.3377,0.942752 -0.8444,1.709656 -1.5198,2.300635 -0.67541,0.576908 -1.51244,0.999242 -2.51148,1.266589 -0.98496,0.253277 -2.1315,0.379822 -3.4401,0.379822 h -4.79144 z m 104.68095,50.567456 c -0.0502,4.91e-4 -0.10043,0.0017 -0.15141,0.0036 -0.20316,0.0076 -0.41003,0.02276 -0.62063,0.04806 -6.11624,0.728959 -9.9527,2.804069 -11.19002,9.134326 -0.43162,2.212447 -0.60121,10.042335 2.87734,9.882601 2.03641,-0.09592 3.51357,-2.717433 4.639,-4.127397 2.76235,-3.449796 6.30827,-5.68486 8.09873,-9.91154 1.25329,-2.957039 -0.49454,-4.858903 -3.20859,-5.018298 -0.0971,-0.0076 -0.19524,-0.01137 -0.29456,-0.01137 v 5.17e-4 c -0.0495,-7.17e-4 -0.0996,-10e-4 -0.14986,-5.17e-4 z M 155.53314,140.82706 c -1.59901,-0.0151 -3.2656,0.37689 -4.98367,1.30173 -2.11975,1.14461 -1.87989,3.80445 -3.59358,5.10253 -3.76626,2.85823 -11.55804,3.27075 -13.6586,8.22637 -1.71689,4.06047 -2.17421,6.906 0.63614,10.55078 1.2437,1.61139 2.31183,2.84246 4.43797,2.23811 2.04635,3.6543 -1.47713,8.22958 2.34353,11.28613 4.57516,3.66094 10.90215,2.28945 15.88016,0.18242 1.69122,-0.7162 3.45662,-0.55667 5.11597,-1.15135 1.43874,-0.51477 2.38174,-1.90214 3.83646,-2.36575 2.01107,-0.64264 3.51368,-0.2783 4.97799,-2.20297 1.60822,-2.1069 1.58587,-5.79668 2.44274,-8.30647 0.50514,-1.48667 1.98869,-3.20015 1.91203,-4.79557 -0.10535,-2.2029 -2.6892,-4.81201 -3.73465,-6.71432 -3.02899,-5.51496 -8.68364,-13.27981 -15.61249,-13.35164 z m -1.63917,101.56228 c -0.057,4.9e-4 -0.11784,0.008 -0.18242,0.0191 -1.35559,0.27831 -2.58335,1.39355 -3.83026,1.96267 -3.82389,1.74885 -9.62989,4.05431 -11.78481,7.96127 -0.87603,1.58579 -3.25831,6.96622 -2.67322,8.61911 0.58188,1.63711 2.50363,1.59917 3.90725,1.98283 3.17154,0.86325 5.51177,2.58336 8.95191,1.82883 3.68318,-0.80891 11.81404,-6.29238 11.01793,-10.83242 -0.43162,-2.4618 -3.11724,-2.60852 -4.30981,-4.25503 -1.05206,-1.4597 0.56218,-6.94077 -0.93638,-7.27243 v 0.002 c -0.0499,-0.0113 -0.10317,-0.0188 -0.16019,-0.015 z m 108.9644,11.99255 v 0.002 c -0.0831,0 -0.1694,0.004 -0.25889,0.015 -0.4092,0.0506 -0.88862,0.22016 -1.45573,0.54001 -0.44442,0.24923 -0.86003,0.60712 -1.21801,0.97152 -1.30129,1.31723 -1.37442,5.57 0.67799,6.44922 1.28207,0.54672 4.02169,-0.84112 4.3,1.49603 0.25263,2.13575 -2.71096,5.47666 -3.63492,7.34064 -1.10462,2.22235 -1.36573,5.47906 -0.98599,8.20312 h 26.48779 c 1.52424,-2.88349 0.0959,-4.6823 -0.54777,-7.56337 -0.50515,-2.27638 0.19483,-4.78975 -0.69712,-7.03419 -0.94956,-2.39152 -3.5617,-5.02265 -5.19864,-7.03368 -3.04697,1.40676 -5.14434,-2.23157 -8.30958,-0.99426 -1.5826,0.62024 -3.11087,3.84641 -5.04517,3.31246 -2.01358,-0.55288 -1.54133,-5.70494 -4.11396,-5.70404 z m 25.41757,14.88488 c 0.004,0.0123 0.008,0.0244 0.0129,0.0367 -0.004,-0.0121 -0.009,-0.0245 -0.0129,-0.0367 z" /></g></svg>
