<?xml version="1.0" encoding="UTF-8" standalone="no"?>
<!-- Created with Inkscape (http://www.inkscape.org/) -->

<svg
   width="12in"
   height="12in"
   viewBox="0 0 304.8 304.8"
   version="1.1"
   id="svg5"
   xml:space="preserve"
   xmlns="http://www.w3.org/2000/svg"
   xmlns:svg="http://www.w3.org/2000/svg"><defs
     id="defs2" /><g
     id="layer9"
     style="display:inline"><path
       id="path7288"
       clip-path="none"
       style="display:inline;fill:#008080;stroke:none;stroke-width:0.0662036"
       d="M 63.210373,97.214875 V 177.93032 H 143.92581 V 97.214875 H 131.41064 130.18189 105.8533 93.101241 Z m 29.890868,3.363145 h 12.752059 4.53249 c -0.28195,0.71903 -0.46563,1.49073 -0.81889,2.15848 -0.53594,1.01134 -1.76612,1.64033 -2.3554,2.71052 -0.33444,0.60537 -0.79421,1.38265 -1.00418,2.03204 -0.16003,0.49699 -0.0702,1.04386 -0.23278,1.52392 -0.16172,0.47667 -0.66553,1.12778 -0.98981,1.5164 -0.97705,1.17094 -1.86778,2.35125 -2.79742,3.56362 -0.49276,0.64262 -1.09896,1.58503 -0.74759,2.45202 0.19981,0.49108 0.75443,0.5164 1.2074,0.5114 1.2276,-0.0152 2.20468,-0.89491 3.0488,-1.65776 0.25316,-0.2286 0.48175,-0.60718 0.77893,-0.77059 0.32681,-0.17953 1.12109,-0.0436 1.50627,-0.0356 0.70781,0.0152 0.75355,1.08383 1.69335,0.91619 0.46899,-0.0838 0.73564,-0.41323 1.10818,-0.66384 0.91101,-0.61299 1.95325,-1.00581 2.39605,-2.10648 0.29888,-0.74506 0.1364,-1.65611 0.62238,-2.36307 0.35306,-0.51393 0.8619,-0.44106 1.37667,-0.62648 0.54018,-0.19473 1.52397,-0.7561 1.90751,-1.16758 0.60027,-0.64262 0.46063,-1.26071 0.66891,-2.02355 0.10329,-0.37592 0.4453,-0.6088 0.64003,-0.93138 0.26162,-0.43095 0.31836,-0.87965 0.69258,-1.25557 0.46398,-0.46482 1.05749,-0.4919 1.58496,-0.83818 0.30565,-0.20151 0.19307,-0.56816 0.46062,-0.74951 0.94403,-0.63957 2.20469,-0.88098 3.103,-1.60412 0.15909,-0.12802 0.39781,-0.34682 0.64195,-0.5909 h 5.30458 1.22875 9.15203 v 70.62601 h -24.44492 c 0.0475,-0.23871 0.0649,-0.48244 0.0364,-0.73281 -0.08,-0.70485 -0.48917,-1.385 -1.12091,-1.41596 -0.21058,-0.0103 -0.44604,0.0515 -0.70216,0.20856 -0.86215,0.52866 -1.60981,1.22751 -2.34883,1.94021 H 66.573516 v -1.89628 c 0.119798,-0.3212 0.198376,-0.68574 0.52207,-0.84996 0.451274,-0.22864 1.092155,0.0515 1.600148,-0.15505 1.0651,-0.43349 2.349546,-2.33753 2.412196,-3.50423 0.03302,-0.61468 -0.502162,-1.01178 -0.848449,-1.43935 -0.385233,-0.47498 -0.569808,-1.17183 -1.141301,-1.46563 -0.400473,-0.20571 -0.844936,-0.0973 -1.269116,-0.18707 -0.400544,-0.0848 -0.841884,-0.19986 -1.275548,-0.34896 v -55.86737 c 0.573219,-0.45931 1.106598,-0.9334 1.698952,-1.46809 1.247973,-1.12742 2.8617,-1.77357 4.049566,-2.92893 0.129079,-0.12568 0.292662,-0.46397 0.32081,-0.51507 z m -5.732096,12.03813 c -0.503629,0.002 -0.778885,0.0294 -1.12269,0.10222 -0.392925,0.0832 -0.797858,0.41855 -1.298128,0.56709 -0.654576,0.19436 -1.355533,0.16506 -1.943906,0.56053 -0.80608,0.54179 -1.14837,1.54651 -1.792418,2.24442 -1.087379,1.17831 -2.584414,1.86249 -3.379017,3.3266 -0.307751,0.56705 -0.386673,1.40305 -0.541092,2.03204 -0.238435,0.97121 -0.313721,2.16777 0.551218,2.85147 0.444001,0.351 1.025375,0.25909 1.52064,0.43189 0.502101,0.17518 1.053187,0.85047 1.608633,0.81027 0.778894,-0.0563 1.29014,-1.31273 1.947328,-1.69512 0.490886,-0.28563 1.052375,-0.39717 1.524061,-0.6815 0.562087,-0.33882 1.157355,-0.9938 1.777912,-1.187 0.380196,-0.11837 0.641902,0.25931 1.016086,0.19391 0.637576,-0.11151 0.997208,-0.74102 1.474796,-1.10668 0.281018,-0.21516 0.565559,-0.24131 0.793437,-0.55026 0.514649,-0.69774 -0.03776,-1.57654 0.126173,-2.36909 0.143411,-0.69335 1.05738,-1.29765 1.683761,-1.52488 0.543001,-0.19699 0.503381,-1.19182 -0.10113,-1.11092 -0.868014,0.11612 -0.357963,-1.66628 -1.116121,-2.19694 -0.629836,-0.44088 -1.841757,-0.69132 -2.49882,-0.69723 -0.08213,-7.5e-4 -0.158776,-10e-4 -0.230723,-8.2e-4 z"
       transform="matrix(3.7762291,0,0,3.7762291,-238.69685,-367.10564)" /></g></svg>
