<?xml version="1.0" encoding="UTF-8" standalone="no"?>
<!-- Created with Inkscape (http://www.inkscape.org/) -->

<svg
   width="12in"
   height="12in"
   viewBox="0 0 304.8 304.8"
   version="1.1"
   id="svg5"
   xml:space="preserve"
   xmlns="http://www.w3.org/2000/svg"
   xmlns:svg="http://www.w3.org/2000/svg"><defs
     id="defs2" /><g
     id="layer10"
     style="display:inline"><path
       id="path14718"
       clip-path="none"
       style="display:inline;fill:#800080;stroke:none;stroke-width:0.0662036"
       d="M 63.210373 97.214875 L 63.210373 177.93032 L 143.92581 177.93032 L 143.92581 97.214875 L 98.00254 97.214875 L 63.210373 97.214875 z M 66.573516 100.57802 L 67.30852 100.57802 C 67.31122 100.62072 67.311773 100.66272 67.315773 100.7057 C 67.364033 101.2286 66.905101 101.91036 67.244612 102.38508 C 67.604445 102.88716 68.217422 102.24174 68.526455 102.00738 C 69.147825 101.53641 69.978253 101.12643 70.62103 100.57802 L 112.70042 100.57802 C 112.62892 100.8781 112.42776 101.14895 111.94858 101.38227 C 109.72199 102.46644 109.57019 103.35652 109.20221 104.64647 C 108.01995 108.79084 112.22915 106.38135 113.12683 105.96813 C 114.43159 105.36755 115.75429 104.84293 116.32644 103.2687 C 116.85157 101.82391 117.62838 101.15334 118.4358 100.57802 L 140.56267 100.57802 L 140.56267 171.20403 L 66.573516 171.20403 L 66.573516 167.11533 C 67.586829 166.80944 68.524028 166.99391 69.18934 165.73016 C 69.38238 165.3644 69.513661 165.03253 69.341787 164.62951 C 68.799535 163.35895 67.74484 162.90448 66.573516 162.74814 L 66.573516 100.57802 z M 87.521455 114.36628 C 87.479785 114.36636 87.441395 114.36921 87.407051 114.37421 C 86.205639 114.56133 84.763724 115.04729 83.780752 115.75335 C 83.116119 116.23003 82.552302 116.93215 81.903763 117.45285 C 81.251838 117.97694 80.384821 118.36443 79.839568 118.99689 C 79.393382 119.51421 78.633128 120.48132 78.633128 121.19506 C 78.633128 122.3262 80.632888 122.85943 81.565068 122.82723 C 81.92066 122.81453 82.264364 122.45821 82.581017 122.31597 C 84.767095 121.33214 85.27428 119.30105 86.900719 117.72709 C 87.253771 117.38589 87.614509 117.45436 87.999734 117.22322 C 88.476408 116.93789 89.057225 116.19024 89.249418 115.667 C 89.516912 114.94158 88.146551 114.3652 87.521455 114.36641 L 87.521455 114.36628 z "
       transform="matrix(3.7762291,0,0,3.7762291,-238.69685,-367.10564)" /></g></svg>
