<?xml version="1.0" encoding="UTF-8" standalone="no"?>
<!-- Created with Inkscape (http://www.inkscape.org/) -->

<svg
   width="12in"
   height="12in"
   viewBox="0 0 304.8 304.8"
   version="1.1"
   id="svg5"
   xml:space="preserve"
   xmlns="http://www.w3.org/2000/svg"
   xmlns:svg="http://www.w3.org/2000/svg"><defs
     id="defs2" /><g
     id="layer8"
     style="display:inline"><path
       id="path7918"
       clip-path="none"
       style="display:inline;fill:#008000;stroke:none;stroke-width:0.0662036"
       d="M 63.210373 97.214875 L 63.210373 177.93032 L 143.92581 177.93032 L 143.92581 97.214875 L 131.0766 97.214875 L 90.432594 97.214875 L 63.210373 97.214875 z M 65.523492 98.754126 L 68.619921 98.754126 L 68.619921 99.676336 L 66.602117 99.676336 L 66.602117 100.21852 L 67.826211 100.21852 L 67.826211 101.13512 L 66.602117 101.13512 L 66.602117 102.66657 L 65.523492 102.66657 L 65.523492 98.754126 z M 83.632957 100.57802 L 90.432594 100.57802 L 98.593171 100.57802 C 98.554201 100.80354 98.646964 101.11257 98.519684 101.22804 C 98.377444 101.35806 97.465554 101.03384 97.143828 101.12896 C 97.877881 101.45645 98.822751 102.24169 99.680417 102.03366 C 99.940344 101.97066 100.12406 101.75398 100.36451 101.64611 C 100.59057 101.54485 101.04696 101.54478 101.19421 101.33218 C 101.33833 101.12476 101.2411 100.82783 101.2547 100.57802 L 105.82251 100.57802 C 105.97412 101.04419 106.25377 101.52747 106.45706 101.80635 L 105.44618 102.47608 L 105.52569 102.56832 C 105.8034 102.89945 105.40379 102.97599 105.22599 103.25405 C 104.85007 103.84164 104.27091 104.18128 104.18541 104.93905 C 104.08296 105.8543 104.13381 106.75596 103.83837 107.64834 C 103.73677 107.95484 103.39976 108.07757 103.31506 108.35105 C 103.0873 109.08673 103.22016 109.86655 102.84513 110.61162 C 102.42687 111.44297 101.77252 112.04162 101.28823 112.81293 C 100.58549 113.93307 100.01727 115.33693 99.715861 116.62302 C 99.537214 117.3841 100.11382 117.52048 100.61166 117.9455 C 100.88598 118.17918 101.07144 118.55165 101.38471 118.73114 C 101.83429 118.98854 103.44715 119.05707 103.91705 118.82173 C 104.46145 118.54995 104.41663 117.93454 104.79848 117.65429 C 105.20826 117.35375 105.84498 117.60259 106.28778 117.38498 C 107.21996 118.68461 108.1115 118.36633 109.428 118.06237 C 110.04861 117.91844 110.72604 117.94041 111.26367 117.53825 C 111.61843 117.27409 111.37191 116.77288 111.72073 116.55021 C 112.49205 116.05829 113.55042 116.0117 114.06519 115.18366 C 114.54525 114.4098 114.39627 112.45066 115.18282 111.99007 C 116.24285 111.36862 117.13953 111.92907 117.97011 112.57085 C 118.48912 112.97133 118.84544 113.71641 119.57696 113.18132 C 120.64461 112.399 119.33653 111.1738 119.71668 110.28565 C 119.88602 109.88856 120.30014 110.21965 120.59647 110.15783 C 121.38726 109.99273 122.0722 109.25532 121.69713 108.49501 C 121.96129 108.35448 122.17461 108.36458 122.45909 108.30028 C 122.74526 108.23588 123.14312 107.86337 123.43946 108.07503 C 123.8357 108.35867 122.95358 109.8946 122.85198 110.27306 C 122.75123 110.64729 122.86098 110.99434 123.30576 110.89694 C 125.13118 110.49816 124.72548 108.36634 124.20909 107.14036 C 124.09648 106.87366 123.80198 106.6729 123.75708 106.37826 C 123.70118 106.02012 124.13297 105.92025 124.18377 105.61206 C 124.26167 105.14636 123.7604 104.66218 124.66041 105.19304 L 125.42743 102.99172 L 126.18529 102.06034 L 126.82874 100.62441 L 126.8958 100.57802 L 131.0766 100.57802 L 140.56267 100.57802 L 140.56267 171.20417 L 118.08205 171.20417 C 117.9713 170.78571 117.72859 170.38436 117.888 169.9631 C 118.26562 168.9649 119.1673 169.15209 119.6863 168.49761 C 119.97671 168.13185 119.55754 166.96333 119.14521 166.79825 C 119.05471 166.76195 118.96776 166.74264 118.88342 166.73694 C 118.29307 166.69684 117.83753 167.3196 117.2945 167.40106 C 114.85271 167.76682 113.34058 168.96406 111.45251 170.49735 C 111.19351 170.70756 110.92981 170.95401 110.66154 171.20417 L 67.219159 171.20417 C 67.317829 170.73433 67.31072 170.18994 67.63832 169.93861 C 68.004926 169.65754 68.934456 169.96241 69.457697 169.63809 C 70.621007 168.91589 71.359378 167.06419 72.009613 165.89917 C 72.26192 165.44621 72.603919 164.90779 72.622549 164.37525 C 72.642019 163.78767 72.111255 163.44548 71.795448 163.02046 C 71.445775 162.54971 71.348349 161.936 70.963968 161.49996 C 70.488988 160.96148 69.741319 160.64817 69.335766 160.05719 C 68.818457 159.30112 68.971685 158.53832 68.018343 158.01762 C 67.870551 157.93662 67.733336 157.91174 67.603972 157.9221 C 67.210573 157.9535 66.890728 158.30866 66.573516 158.39806 L 66.573516 107.75686 C 66.793299 107.72646 67.019671 107.72147 67.256381 107.75877 C 68.462876 107.94673 69.049633 109.61219 70.299303 108.47681 C 71.248417 107.61322 69.925095 106.42533 70.008915 105.44743 C 70.108825 104.28411 71.991037 103.96575 72.759806 103.33753 C 73.054446 103.09623 73.523403 102.53293 73.93573 102.53369 C 74.370911 102.53445 74.266747 103.22833 74.298921 103.50011 C 74.375121 104.13255 74.835744 105.57526 75.484286 105.83772 C 76.554468 106.27037 77.575632 103.9454 78.574694 104.16723 C 79.122487 104.28915 78.442517 105.51087 78.749858 105.8072 C 78.925118 105.97569 79.271497 105.46779 79.534811 105.4915 C 80.385706 105.5702 80.675184 106.5362 81.480359 106.53112 C 81.970579 106.52812 82.572621 106.34485 83.004421 106.12811 C 83.430289 105.91475 83.87648 105.82328 84.272715 105.54049 C 85.096522 104.95206 85.202285 103.75075 84.410657 103.05056 C 84.019497 102.70435 83.401461 102.52959 83.218586 101.97604 C 83.10852 101.64211 83.473405 100.94523 83.608872 100.62468 C 83.615972 100.60808 83.625137 100.59399 83.632957 100.57829 L 83.632957 100.57802 z M 84.950927 110.57453 C 84.526697 110.58053 84.315263 110.61438 84.105078 110.6955 C 82.559075 111.29155 80.688808 113.0704 79.79304 114.43607 C 79.393418 115.04567 79.517804 115.88044 78.980171 116.42062 C 78.716858 116.68478 78.312214 116.76018 78.009107 116.97608 C 77.532439 117.31644 77.284351 117.80747 76.899965 118.23165 C 76.41483 118.76674 75.580039 119.2587 75.418326 120.0097 C 75.298099 120.56426 75.664718 121.0434 75.852678 121.53362 C 76.044866 122.03315 76.112556 122.61478 76.193836 123.14225 C 76.317449 123.9432 76.086237 124.9728 75.93807 125.76697 C 75.87457 126.10564 75.710372 126.56366 76.081212 126.79565 C 76.411407 127.00224 76.772082 126.60766 77.077729 126.51196 C 77.808397 126.28348 78.289304 126.38086 79.025057 126.44436 C 78.797304 127.06072 78.422292 129.00295 79.702448 128.75064 C 80.710823 128.55168 81.729322 127.22994 82.280502 126.44423 C 82.64541 125.92353 82.593779 125.3225 83.258408 125.05072 C 84.153329 124.68497 84.604595 125.02771 85.459723 125.02691 C 86.468098 125.02491 87.98275 124.49185 88.753212 123.85262 C 89.281527 123.41404 89.329002 122.62839 89.870017 122.16695 C 90.830132 121.34992 92.692849 121.42016 92.802915 119.84028 C 92.856255 119.06812 91.687004 118.86491 91.838557 118.14694 C 92.018892 117.29096 93.267712 117.27323 93.324437 116.28432 C 93.377777 115.36315 92.894332 114.6595 92.441366 113.91359 C 92.143339 113.42252 92.137415 112.66654 91.766575 112.25336 C 90.543994 110.89284 88.29608 110.95448 86.645089 110.86218 C 86.017079 110.82658 85.375159 110.56833 84.950927 110.57453 z M 90.102383 125.72359 C 90.071863 125.72409 90.05158 125.7246 90.03177 125.7266 C 88.397714 125.82989 87.180124 127.02873 86.112482 128.12347 C 85.699309 128.54765 85.239623 128.88297 84.942443 129.40791 C 84.236328 130.65251 84.528358 132.3602 86.221686 132.2832 C 87.997136 132.2028 89.599079 130.8218 91.04772 129.92095 C 91.770769 129.47221 92.583595 129.04386 93.057723 128.30726 C 94.138806 126.62848 91.64803 125.75858 90.922368 125.7396 C 90.378121 125.7254 90.193929 125.72237 90.102383 125.72387 L 90.102383 125.72359 z M 103.96933 138.97336 C 103.89983 138.97236 103.80563 138.97933 103.67566 139.00333 C 103.2851 139.01373 102.48964 140.17282 102.70555 140.83242 L 102.70555 140.83269 C 102.82916 141.20864 103.19228 141.09937 103.47422 141.22722 C 103.67827 141.31952 103.72237 141.64795 103.94251 141.68265 C 104.1855 141.72075 104.48598 141.46 104.67902 141.34231 C 105.23353 141.00365 105.88045 140.84023 106.37236 140.41435 C 105.95749 140.27215 105.31576 140.5601 104.97625 140.32718 C 104.5563 140.03931 104.75523 139.12233 104.16256 139.00634 C 104.13256 139.00034 104.08526 138.97556 103.96933 138.97336 z M 86.028048 163.81773 C 85.811814 163.81743 85.681413 163.83152 85.519525 163.86522 C 84.932944 163.87812 84.559993 165.72108 84.062793 166.20899 C 83.75376 166.51291 83.022977 166.10564 82.581017 166.22596 C 81.635296 166.48504 81.005999 168.25099 81.395788 169.03186 C 82.18149 168.70256 82.911254 168.16406 83.766383 167.99388 C 84.343804 167.87868 84.828074 168.07085 85.375015 168.00565 C 85.859309 167.94805 86.61625 167.5798 86.59254 166.99983 C 86.57561 166.59089 86.206567 166.33605 86.344574 165.89917 C 86.48935 165.43859 87.152238 164.42596 86.540949 164.05174 C 86.368209 163.94597 86.244282 163.81803 86.028048 163.81773 z "
       transform="matrix(3.7762291,0,0,3.7762291,-238.69685,-367.10564)" /></g></svg>
