<?xml version="1.0" encoding="UTF-8" standalone="no"?>
<!-- Created with Inkscape (http://www.inkscape.org/) -->

<svg
   width="12in"
   height="12in"
   viewBox="0 0 304.8 304.8"
   version="1.1"
   id="svg5"
   xml:space="preserve"
   xmlns="http://www.w3.org/2000/svg"
   xmlns:svg="http://www.w3.org/2000/svg"><defs
     id="defs2" /><g
     id="layer4"
     style="display:inline"><path
       id="path7514"
       clip-path="none"
       style="display:inline;fill:#808000;stroke:none;stroke-width:0.0662036"
       d="M 63.210373 97.214875 L 63.210373 177.93032 L 143.92581 177.93032 L 143.92581 97.214875 L 63.210373 97.214875 z M 139.09663 100.57802 L 139.46598 100.57802 C 139.43128 100.72604 139.39811 100.87709 139.41111 101.04439 C 139.45851 101.63884 139.80227 102.45518 140.06304 102.99172 C 140.18616 103.24554 140.3646 103.4554 140.56267 103.64872 L 140.56267 123.27568 C 140.45016 123.50433 140.39511 123.72129 140.43636 123.90353 C 140.45816 123.99963 140.50396 124.08727 140.56267 124.16942 L 140.56267 125.07042 C 139.27943 125.70206 137.92168 126.13317 136.76956 127.01666 C 136.21245 127.44338 135.95677 128.16482 135.56476 128.73039 C 134.75619 129.89789 133.35065 131.71748 133.47511 133.21772 C 133.52341 133.80446 133.89517 134.38783 134.14319 134.91107 C 133.71907 135.05585 133.24229 135.10581 132.88161 135.39537 C 131.97483 136.12514 131.96891 137.72194 131.51848 138.72101 C 131.2848 139.23917 130.62699 139.61854 130.68795 140.24507 C 130.74975 140.8733 131.35338 140.8698 131.75809 141.15428 C 132.12469 141.41167 132.27618 141.88411 132.63432 142.1415 C 133.04664 142.43608 134.16941 142.34133 134.65117 142.24481 C 135.92879 141.98912 136.15148 141.01631 136.76531 140.07566 C 137.21489 139.38647 137.92772 138.88445 138.40693 138.21304 C 139.01653 137.36045 139.19519 136.25384 140.15446 135.67303 C 140.43132 136.24876 140.19173 136.76524 140.25353 137.36637 C 140.28913 137.70484 140.48551 138.01705 140.56267 138.34195 L 140.56267 138.7893 C 140.49797 139.02026 140.35708 139.24021 140.33236 139.48298 C 140.27056 140.10946 140.45761 140.82747 140.23657 141.4303 C 140.08925 141.83162 139.70662 142.09832 139.61857 142.53096 C 139.52457 142.99409 139.80222 143.50633 139.73448 143.97031 C 139.69048 144.27341 139.44745 144.50202 139.40851 144.81698 C 139.30437 145.66111 140.53038 146.01792 140.37629 146.60297 C 140.14854 147.46996 139.0834 147.27827 138.57032 147.79135 C 137.7863 148.57621 137.93365 149.69044 137.36046 150.48969 C 137.07514 150.6531 137.05736 150.88331 137.10647 151.16694 C 136.39273 151.32104 136.18354 152.1492 135.72719 152.66651 C 134.48604 154.07282 133.04498 156.57804 133.27189 158.53299 C 133.34049 159.1155 133.16772 159.97318 133.81203 160.30762 C 134.44872 160.63691 135.11162 159.75139 135.4977 159.38732 C 136.3232 158.60754 137.39518 158.08854 138.15718 157.24526 C 138.52379 156.83886 139.03173 155.84826 139.5719 155.68316 C 139.8022 155.61286 140.01137 155.94227 140.15446 156.07768 C 140.29752 155.93366 140.42972 155.78216 140.56267 155.63444 L 140.56267 160.31569 L 140.56267 171.20403 L 140.5624 171.20403 L 140.5624 168.88626 C 140.23186 169.03784 139.91609 169.31813 139.69274 168.85725 C 139.49888 168.45762 139.29905 167.86835 139.47939 167.43486 C 139.57929 167.19525 139.86437 167.11052 139.86037 166.82521 C 139.84847 166.03442 139.17453 165.13105 138.94254 164.37497 C 138.82062 163.97789 138.97644 163.0889 138.51243 162.8713 C 138.46553 162.8493 138.41403 162.84067 138.36012 162.84037 L 138.35999 162.84037 L 138.35985 162.84037 C 138.19793 162.83958 138.0144 162.91387 137.86843 162.92727 C 136.75427 163.02803 136.37748 163.67739 135.41313 164.11934 C 135.11933 164.25396 134.57066 164.26324 134.22777 164.35554 C 133.38703 164.5816 133.13892 163.38281 132.19573 164.13549 C 131.80373 164.44875 131.2695 164.82036 131.08577 165.30635 C 130.85467 165.92103 131.05457 166.75931 130.86996 167.42309 C 130.6837 168.08857 130.17483 168.69563 129.942 169.37042 C 129.8523 169.63204 129.73024 169.91987 129.47878 170.06464 C 129.3179 170.15694 128.84552 170.08934 128.89882 170.38473 C 128.92842 170.54814 129.10126 170.6174 129.21302 170.7148 C 129.37065 170.85201 129.49332 171.16464 129.71443 171.1976 L 129.71443 171.20362 L 126.81437 171.20362 L 124.91727 171.20362 C 125.11748 170.85379 125.27493 170.5055 125.31741 170.21668 C 125.38011 169.78912 124.87625 169.33016 125.07437 168.95509 C 125.22592 168.66722 125.60531 168.55875 125.82798 168.33613 C 126.115 168.04911 126.23268 167.63521 126.53917 167.36343 C 126.73814 167.18732 127.15297 167.14659 127.26473 166.8909 C 127.42221 166.53106 126.75076 165.12641 126.52385 164.80891 C 126.18603 164.33732 125.65352 164.53136 125.16838 164.54316 C 124.03215 164.56856 122.92216 164.77432 121.7817 164.79632 C 120.95705 164.81322 120.13497 164.47194 119.3264 164.32885 C 118.69394 164.21706 118.09272 164.41796 117.46364 164.41096 C 117.06148 164.40596 116.68058 164.21381 116.27841 164.22731 C 115.27511 164.26291 114.8653 165.26951 113.99239 165.45154 C 112.57592 165.74703 111.0654 165.26614 109.67433 165.60481 C 109.14432 165.73435 108.79297 166.17465 108.5957 166.66058 C 108.467 166.97639 108.39761 167.52926 107.97935 167.59196 C 107.60089 167.64866 107.27915 167.22273 106.96504 167.08303 C 106.54678 166.89677 106.10393 167.22875 105.70769 166.97136 C 105.38003 166.75969 105.46977 166.43794 105.64419 166.15261 C 106.15727 165.31441 106.68302 164.82836 106.62292 163.78188 C 106.57302 162.92082 105.63496 162.59825 105.51474 161.83455 C 105.43854 161.35026 106.21658 160.7246 105.58672 160.32582 C 104.60459 159.70437 103.45145 160.75511 102.64712 161.17591 C 102.02058 161.50272 101.29585 161.61275 100.69979 162.00137 C 99.478047 162.79639 98.895436 163.92678 98.221495 165.13666 C 97.849809 165.80384 97.463762 166.37354 97.405342 167.16856 C 97.363852 167.73583 97.472193 168.46401 98.076711 168.70193 C 98.395058 168.82723 99.411924 168.65283 99.411924 169.20402 C 99.411924 169.97279 97.64246 169.88295 97.313107 170.47053 C 97.798326 170.63177 97.951704 170.87504 98.006646 171.20362 L 89.565807 171.20362 L 90.87844 170.21654 L 91.301707 170.63995 C 92.452321 170.70255 92.861953 169.88462 93.367407 169.03118 C 93.58246 168.66796 93.905051 168.20235 93.892351 167.76124 C 93.871181 166.97807 93.072813 166.25585 92.895013 165.47522 C 92.787483 165.00447 92.643535 164.4363 92.691795 163.95116 C 92.736675 163.48803 93.024453 163.07491 92.8348 162.59993 C 92.65446 162.15035 91.982262 162.04538 91.873042 161.58056 C 91.735882 160.99636 93.110003 160.325 93.254783 159.71794 C 93.349612 159.3217 92.905159 158.88481 92.641846 158.6452 C 91.981452 158.04571 90.228843 157.97119 89.354242 157.99409 C 88.072401 158.02709 87.261179 159.63151 86.291751 160.21401 C 85.655911 160.59666 84.780439 160.31311 84.104805 160.63399 C 82.810258 161.25036 81.41156 162.95298 80.481926 164.03587 C 79.195851 165.53271 78.620985 167.73407 77.211291 169.14969 C 76.881944 169.48074 76.441688 169.55364 76.064927 169.7941 C 75.516287 170.14292 75.191162 170.79478 74.674702 171.18255 C 74.664182 171.19055 74.65192 171.19632 74.6409 171.20362 L 71.785321 171.20362 C 72.465619 170.64454 73.335618 170.15472 73.721291 169.62386 C 74.448572 168.62225 75.081921 167.52495 75.766875 166.49117 C 76.123315 165.95269 76.660086 165.38711 76.913239 164.79783 C 77.041906 164.49895 76.945399 164.17139 77.035991 163.86659 C 77.136744 163.52877 77.446748 163.29674 77.484848 162.93521 C 77.540698 162.41028 77.267164 162.02496 77.490732 161.49585 C 77.794685 160.77704 78.460916 160.33845 78.770796 159.63323 L 77.077455 159.97193 C 77.482161 159.04652 79.101921 156.51064 77.654127 155.65551 C 77.060619 155.30615 76.201225 155.62671 75.553531 155.31518 C 75.948918 154.68357 76.893748 153.94274 76.841258 153.11386 C 76.788768 152.27146 75.788826 152.77523 75.438306 152.3248 C 75.169913 151.97852 75.577242 151.4925 75.308849 151.08949 C 75.143749 150.84311 74.871072 150.67718 74.622152 150.52732 C 74.352918 150.36645 73.932118 150.04295 73.607845 150.05315 C 72.824684 150.07765 72.78739 151.74056 72.590116 152.26719 L 71.1509 149.13491 C 70.012986 149.84357 69.857123 148.92747 68.780169 148.8047 C 68.185809 148.737 67.672763 149.18158 67.171536 149.39409 C 66.959942 149.48409 66.763441 149.54743 66.573516 149.60415 L 66.573516 145.93721 C 66.849547 145.6922 67.130521 145.45268 67.425524 145.23177 C 68.366165 144.52819 69.50662 143.77472 69.825814 142.53096 C 70.053567 141.64196 68.705694 140.50992 68.018207 140.18226 C 67.566883 139.96783 67.067988 139.97127 66.573516 139.98329 L 66.573516 124.00398 C 67.050944 124.3398 67.52659 124.67729 67.900518 125.10395 C 68.239185 125.49088 68.293307 125.97603 68.441473 126.44423 L 68.864877 125.59756 C 69.383031 125.71016 69.500734 124.82466 69.534604 124.41233 C 69.618424 123.36585 69.609025 122.35494 70.026431 121.36434 C 70.396424 120.48889 71.042419 119.52786 71.489459 118.73962 C 71.757852 119.65571 70.93666 121.02221 70.99339 122.0416 C 71.01625 122.44116 71.314306 123.22694 71.540366 123.55799 C 71.674139 123.75526 71.958567 123.90085 71.972117 124.16162 C 71.988207 124.47235 71.729085 124.85171 71.683371 125.17429 C 71.544518 126.13526 71.486951 127.27068 71.529281 128.22227 C 71.581771 129.41777 72.166857 130.81819 72.54701 131.94765 C 72.743437 132.531 72.891666 133.57658 73.314993 134.02786 C 73.85686 134.60359 74.380887 133.50888 74.960848 133.58598 C 75.326608 133.63428 75.832938 133.84071 76.037831 134.15991 C 76.327391 134.60949 76.370494 135.44347 77.077455 135.47227 C 77.744622 135.49937 78.815712 133.87122 79.308466 134.28609 C 79.558229 134.49606 79.562533 134.87875 79.650583 135.16492 C 79.742873 135.46379 79.967247 135.69917 80.021437 136.01159 C 80.13997 136.69908 79.895183 137.48233 80.269403 138.12833 C 81.03225 139.44575 82.850898 139.06463 84.104805 139.06463 C 84.650053 139.06547 85.385019 139.18662 85.882853 138.92669 C 86.506 138.60072 86.951313 137.96914 87.491486 137.53565 C 87.663353 138.11307 87.544796 138.73105 87.696345 139.31356 C 87.762385 139.57094 88.064763 139.8707 87.973323 140.14586 C 87.743876 140.84352 86.815071 141.06198 86.796441 141.93828 C 86.771042 143.11853 87.713291 143.81783 88.040104 144.90156 C 88.282251 145.70668 88.812308 147.62619 90.031496 147.27229 C 91.34975 146.88959 90.173758 145.14042 90.923052 144.33693 C 91.319292 143.91191 91.893381 143.8542 92.402228 143.64175 C 93.551995 143.16169 93.794185 142.68311 94.977819 142.30804 L 95.196226 142.10756 C 95.832063 141.71047 96.794648 141.65207 95.87348 142.44625 C 96.461067 142.70871 97.471172 143.11093 97.851325 143.64941 C 98.061302 143.94659 97.995306 144.46731 98.12146 144.81698 C 98.409326 145.61285 99.181403 146.35954 100.02212 146.54919 C 100.90011 146.74816 101.72986 146.27157 102.56213 146.20297 C 102.96599 146.16907 103.33433 146.43751 103.7475 146.40701 C 104.36049 146.36131 104.79479 145.95493 105.35613 145.78052 C 105.8218 145.63492 106.18764 145.96666 106.62621 145.87618 C 106.9852 145.80168 107.14187 145.42063 107.4763 145.30717 C 108.01394 145.12429 108.46089 145.78127 108.99598 145.43498 C 109.76983 144.93545 109.79609 144.10661 110.16862 143.37763 C 110.41162 142.90265 111.02802 142.70952 111.1728 142.19227 C 111.69435 140.31944 110.41919 138.67434 109.42103 137.32052 C 109.16449 136.97085 109.11449 136.53409 108.80207 136.18442 C 108.30762 135.6307 107.65907 135.3732 107.04947 134.98797 C 105.70073 134.13453 103.90337 132.6437 102.22782 132.5844 C 101.88492 132.5726 101.75622 132.98137 101.58943 133.21759 C 101.15848 133.82634 100.22787 135.3199 99.297383 134.36655 C 98.768222 133.82469 99.924787 132.68593 100.17033 132.20164 C 100.2914 131.96372 100.40315 131.65048 100.6326 131.49469 C 100.88236 131.32454 101.19478 131.47358 101.46148 131.43968 C 101.19394 130.84108 100.67753 130.07566 100.45401 129.40764 C 100.2779 128.87847 100.37011 128.33072 100.15336 127.79901 C 99.915449 127.2182 99.392195 127.02519 99.084861 126.52565 C 98.792761 126.04983 98.813194 125.52063 98.6735 125.00501 C 98.47284 124.26248 98.170559 123.66734 98.040173 122.8884 C 97.903013 122.07137 97.10958 121.21951 97.482113 120.43296 C 97.882581 120.72845 98.485553 121.04508 98.768334 121.45233 C 99.305121 122.22787 99.521731 123.30064 100.21686 123.96019 C 100.5513 124.27769 100.98067 124.32349 101.37691 124.51907 C 102.28871 124.9695 103.27086 125.48589 104.0862 126.09718 C 104.79057 126.6255 105.80413 128.13933 106.78372 128.10883 C 107.1952 128.09613 107.13412 127.13434 107.33986 126.87187 C 107.79029 126.29868 108.25936 126.63745 108.81562 126.45203 C 109.09841 126.35803 109.25171 125.90931 109.4202 125.6824 C 110.14241 126.21496 110.37183 125.7627 110.77485 125.17429 C 111.56987 125.58239 111.53012 124.91774 111.70623 124.32762 C 111.88403 124.49356 112.11003 124.75953 112.38266 124.73583 C 112.70439 124.70793 112.87286 124.31417 113.14887 124.17955 C 113.67205 123.9247 115.54504 123.72063 115.7948 124.51565 C 115.94382 124.99063 114.99374 125.83648 114.72534 126.19038 C 113.58573 127.694 111.56387 129.0512 112.72888 131.10098 C 112.97611 131.53532 113.31479 132.00783 113.65684 132.37105 C 113.94217 132.67331 114.27158 133.08736 114.66951 133.23976 C 115.94877 133.72829 117.0868 132.49289 117.34842 131.35497 C 117.45002 130.91047 117.43642 129.54318 117.90634 129.33744 C 118.15441 129.22907 118.4372 129.48548 118.64887 129.58458 C 119.11623 129.80264 119.57937 129.93257 120.08822 129.81065 C 121.36076 129.5067 121.70361 128.19188 122.63918 127.41803 C 123.41557 126.77541 124.85494 126.31899 125.08778 125.17429 C 125.40951 123.58849 123.08536 123.44372 122.42502 122.6106 C 121.73075 121.73514 122.24979 120.16805 122.54352 119.24773 C 123.37834 119.95808 124.23097 121.24493 125.42223 121.4693 C 125.94462 121.5675 126.54998 120.44572 126.98009 120.75729 C 127.18923 120.90885 127.19346 121.46597 127.26036 121.70304 C 127.5059 122.57426 127.74714 123.29808 128.23566 124.07363 C 128.40161 124.33779 128.63018 124.74676 128.97901 124.77976 C 129.83753 124.86016 130.94412 123.15084 131.35645 122.54971 C 132.39531 121.03841 134.30539 120.28394 135.38658 118.73962 C 135.82685 118.11054 136.28318 117.32063 136.05289 116.53831 C 135.78873 115.64254 135.03855 114.93899 134.14278 114.70785 C 133.81681 114.62315 132.60025 114.57913 132.52745 114.16087 C 132.48005 113.88486 133.11662 113.73924 133.29611 113.65714 C 134.11822 113.28376 134.99719 113.00609 135.49757 112.22038 C 136.34847 112.60055 137.87181 114.44108 138.28075 112.55894 C 138.33005 112.33288 138.32333 112.10859 138.28773 111.88169 C 138.23943 111.56588 138.15737 111.25681 138.07097 110.95031 C 138.59337 110.79622 139.15814 110.91471 139.54084 110.43303 C 139.9701 109.89286 139.69574 109.27982 139.68384 108.66429 C 139.65924 107.36212 140.04537 106.01856 138.98456 104.95684 C 138.35633 104.32861 138.0869 104.53942 137.36046 104.09238 C 137.70821 103.8829 138.15761 103.85581 138.37641 103.41499 C 137.96467 102.96151 137.41732 102.79316 136.93706 102.48374 L 137.14917 101.41415 L 137.19652 101.43947 C 137.67297 101.87141 138.39091 102.41613 138.74891 101.95634 C 139.04626 101.52666 139.01399 100.99287 139.09663 100.57802 z M 87.984134 104.14575 C 88.222609 104.14575 88.427581 104.17186 88.598986 104.22402 C 88.774116 104.27246 88.9231 104.34702 89.046064 104.44763 C 89.172754 104.54451 89.279077 104.66564 89.36478 104.81096 C 89.450482 104.95255 89.52679 105.11459 89.593861 105.29718 L 88.610207 105.68281 C 88.576671 105.59338 88.541276 105.51142 88.504014 105.4369 C 88.466752 105.36237 88.423819 105.30087 88.375378 105.25243 C 88.326938 105.20026 88.271086 105.16123 88.207741 105.13515 C 88.144396 105.10534 88.067951 105.0904 87.978523 105.0904 C 87.866737 105.0904 87.769973 105.11839 87.687997 105.17429 C 87.606021 105.22645 87.536978 105.30088 87.481085 105.39776 C 87.428919 105.49091 87.389891 105.60275 87.363808 105.73317 C 87.341451 105.86359 87.33028 106.00705 87.33028 106.16355 C 87.33028 106.3126 87.341451 106.4523 87.363808 106.58271 C 87.389891 106.71313 87.428919 106.82685 87.481085 106.92373 C 87.536978 107.02062 87.606021 107.09692 87.687997 107.15282 C 87.769973 107.20871 87.870506 107.2367 87.989744 107.2367 C 88.075447 107.2367 88.150007 107.22553 88.213352 107.20318 C 88.276697 107.18082 88.334433 107.14731 88.3866 107.10259 C 88.438766 107.05415 88.489101 106.99628 88.537541 106.92921 C 88.585982 106.85841 88.63618 106.77645 88.688346 106.6833 L 89.605082 107.16965 C 89.538011 107.30006 89.459682 107.42671 89.370253 107.54967 C 89.280825 107.66891 89.171006 107.7751 89.04059 107.86825 C 88.9139 107.9614 88.762895 108.03785 88.587764 108.09747 C 88.412634 108.15336 88.209546 108.18122 87.978523 108.18122 C 87.687881 108.18122 87.430826 108.13102 87.207255 108.03041 C 86.98741 107.92608 86.801147 107.7845 86.648373 107.60564 C 86.499326 107.42678 86.385601 107.21427 86.307352 106.96835 C 86.232828 106.72242 86.195548 106.45419 86.195548 106.16355 C 86.195548 105.85055 86.238481 105.56927 86.324184 105.31962 C 86.413612 105.06996 86.536486 104.85934 86.692985 104.68793 C 86.853211 104.5128 87.041496 104.37876 87.257615 104.2856 C 87.477459 104.19245 87.719575 104.14575 87.984134 104.14575 z M 124.02544 132.52446 C 123.58265 132.51546 123.72027 133.98534 122.96707 133.13302 C 122.37608 133.59615 122.31768 134.24643 122.10178 134.91107 C 121.95278 135.36736 121.54385 135.70263 121.46175 136.181 C 121.37965 136.66445 121.40665 138.31374 122.2051 138.21974 C 122.56239 138.17744 122.95096 137.66938 123.22105 137.45094 C 123.85689 136.93617 124.79331 136.31481 124.87881 135.41904 C 124.91611 135.0228 124.69687 134.62906 124.66807 134.23367 C 124.63337 133.7587 124.78995 133.2066 124.44282 132.81375 C 124.26073 132.60738 124.12762 132.52657 124.02544 132.52446 z M 112.26059 145.87194 L 112.26059 145.87235 C 112.23669 145.87253 112.21292 145.87291 112.18902 145.8733 C 111.55393 145.8978 110.94914 146.17308 110.60571 146.76363 C 111.46085 147.22675 112.80882 146.95421 113.31513 146.08637 C 113.00621 145.9533 112.66744 145.87879 112.3323 145.87207 L 112.3323 145.87221 L 112.3323 145.87235 C 112.3084 145.87185 112.28449 145.87175 112.26059 145.87194 z M 137.55136 161.07478 C 137.54076 161.08908 137.53045 161.10317 137.51975 161.11747 C 137.53055 161.10307 137.54076 161.08918 137.55136 161.07478 z M 133.09427 163.02416 L 133.09427 163.02443 C 133.07707 163.02428 133.0599 163.02462 133.0424 163.02539 C 133.0773 163.02339 133.1117 163.02439 133.14558 163.02621 C 133.12858 163.02522 133.11147 163.02416 133.09427 163.02416 z M 133.44322 163.08013 C 133.50672 163.09803 133.56946 163.11877 133.63207 163.14007 C 133.56947 163.11877 133.50673 163.09793 133.44322 163.08013 z M 129.73372 167.09959 C 129.73472 167.10359 129.73573 167.10761 129.73673 167.11231 C 129.73573 167.10831 129.73472 167.10329 129.73372 167.09959 z "
       transform="matrix(3.7762291,0,0,3.7762291,-238.69685,-367.10564)" /></g></svg>
