<?xml version="1.0" encoding="UTF-8" standalone="no"?>
<!-- Created with Inkscape (http://www.inkscape.org/) -->

<svg
   width="12in"
   height="12in"
   viewBox="0 0 304.8 304.8"
   version="1.1"
   id="svg5"
   xml:space="preserve"
   xmlns="http://www.w3.org/2000/svg"
   xmlns:svg="http://www.w3.org/2000/svg"><defs
     id="defs2" /><g
     id="layer3"
     style="display:inline"><path
       id="path7372"
       clip-path="none"
       style="display:inline;fill:#ffff00;stroke:none;stroke-width:0.0662036"
       d="M 63.210373,97.214875 V 177.93032 H 143.92581 V 97.214875 Z m 17.658556,7.007785 h 1.889168 c 0.484403,0 0.832842,0.0875 1.045234,0.2626 0.216119,0.17513 0.32419,0.42667 0.32419,0.75458 0,0.21239 -0.0467,0.37456 -0.139857,0.48635 -0.08943,0.11179 -0.199247,0.20492 -0.329664,0.27944 0.178857,0.0745 0.31667,0.1826 0.413551,0.32419 0.09688,0.13787 0.145331,0.31848 0.145331,0.54205 0,0.40243 -0.121126,0.71359 -0.363328,0.93343 -0.242202,0.21985 -0.611096,0.3298 -1.106679,0.3298 h -1.877946 z m 59.693741,9.79288 v 3.29486 c -0.25687,0.5055 -0.44937,1.11503 -0.553,1.59864 -0.0677,0.31242 -0.30483,0.85603 -0.0576,1.13035 0.14681,0.1631 0.3715,0.23129 0.61061,0.27192 v 0.84598 c -0.52134,0.27574 -1.12634,0.41467 -1.54117,0.88868 -0.23283,0.2667 -0.43858,0.56561 -0.46568,0.92714 -0.0195,0.25569 0.15077,0.67145 -0.0627,0.87295 -0.22945,0.21761 -0.67387,0.0762 -0.94903,0.27766 -0.62315,0.4572 -1.34711,1.38433 -1.85934,1.98208 -0.54441,0.635 -0.51555,1.49512 -1.06165,2.10895 -0.74846,0.84074 -2.02103,1.69248 -2.50786,2.71695 -0.30988,0.65193 -0.32436,1.84913 -0.13725,2.54001 0.0737,0.26924 0.43696,0.54875 0.35826,0.83915 -0.11091,0.40302 -0.75871,0.82205 -0.99829,1.19289 -0.46059,0.71204 -0.49111,1.55619 -0.87295,2.28602 -0.30396,0.58081 -0.79748,0.92791 -0.92618,1.60863 -0.16002,0.84413 -0.0305,1.9431 0.0813,2.794 0.0296,0.2286 -0.0271,0.60625 0.12275,0.7959 0.27517,0.34714 0.90425,-0.0686 1.26747,0.127 0.37761,0.20405 0.61886,0.57824 1.01595,0.7662 1.47151,0.69426 2.88884,0.0279 4.14783,-0.89662 1.23864,-0.90932 1.5435,-2.7491 2.62554,-3.84046 0.52663,1.78052 -0.48686,3.20203 -0.69683,4.9106 -0.0957,0.78571 0.37925,1.63582 0.29545,2.37073 -0.0779,0.68072 -1.0032,0.59606 -1.46124,0.91441 -0.55542,0.38693 -0.55289,0.93985 -0.91441,1.45208 -0.15833,0.22352 -0.43437,0.35473 -0.54698,0.60788 -0.35391,0.79414 -0.16005,1.74406 -0.47924,2.52892 -0.19812,0.48684 -0.61548,0.81796 -0.85255,1.27008 -0.27855,0.53083 -0.20405,1.15062 -0.38947,1.69334 -0.25062,0.7366 -0.89066,1.34868 -1.08793,2.1166 -0.14647,0.56981 0.0372,1.27348 0.0372,1.86276 0,0.76115 0.061,3.18512 1.18619,3.25202 0.60368,0.0356 1.22091,-0.66887 1.59344,-1.04564 0.73914,-0.7476 1.59942,-1.46809 2.3851,-2.20638 0.55287,0.43688 0.73739,-0.0381 1.26994,-0.25317 0.30141,-0.12187 0.62997,-0.0313 0.93138,-0.13547 0.18812,-0.0647 0.33848,-0.1938 0.49292,-0.3153 v 2.14781 c -0.929,0.13004 -1.55597,0.96308 -2.69424,0.3339 -0.42672,0.52917 -0.94743,1.54342 -1.69334,1.01595 -0.43942,0.44027 -0.955,1.30904 -1.53158,1.5461 -0.61468,0.25231 -1.04316,-0.21085 -1.60111,-0.18625 -0.49784,0.022 -1.05835,0.57236 -1.43935,0.85515 -0.73406,0.54356 -0.97028,1.1209 -1.44018,1.84141 -0.14817,0.2286 -0.46988,0.40309 -0.51728,0.68588 -0.1059,0.635 0.37262,0.74581 -0.0813,1.43839 -0.38777,0.59266 -0.84164,1.19726 -1.37928,1.65954 -0.17018,0.14563 -0.41147,0.14562 -0.56217,0.31749 -0.32436,0.37175 -0.55792,0.90756 -0.80849,1.38078 h -1.01129 l 0.17215,-0.22484 0.32857,-1.89067 2.33583,-1.91941 c -0.33951,-0.24976 -0.69929,-0.46906 -0.91181,-0.84667 -0.38608,-0.68496 -0.49446,-1.70095 -1.29114,-2.10142 -0.37423,-0.18794 -0.79159,0.0398 -1.18359,0.0178 -0.43096,-0.0246 -0.83405,-0.20822 -1.27008,-0.19802 -0.77552,0.0186 -1.48677,0.20315 -2.28602,0.14985 -1.57819,-0.10583 -3.10214,-0.75107 -4.65662,-0.97544 -0.4572,-0.0656 -1.16159,-0.16096 -1.60863,-0.0576 -0.37676,0.0872 -0.7112,0.34716 -1.10066,0.38016 -0.42842,0.0364 -0.82473,-0.20651 -1.27007,-0.16421 -1.45881,0.13885 -2.53237,0.62734 -3.89466,1.13364 -0.39031,0.14478 -1.01091,0.84334 -1.42662,0.73582 -0.53675,-0.13886 -0.006,-1.75428 0.0467,-2.13782 0.0881,-0.64092 -0.37941,-0.81204 -0.51742,-1.3556 -0.0999,-0.39455 0.22949,-0.70942 0.18119,-1.09888 -0.0897,-0.71459 -1.34527,-1.43262 -2.00905,-1.43347 -1.03545,-0.002 -2.08287,0.82045 -2.96341,1.27172 -1.38938,0.7129 -3.086966,1.15575 -4.115663,2.44777 -0.437727,0.55033 -0.514707,1.32661 -0.826281,1.94637 -0.67225,1.33435 -1.518986,3.18012 -0.138078,4.23335 -0.513078,0.3285 -1.290241,1.18289 -1.225051,1.86276 0.008,0.0837 0.02872,0.15707 0.0557,0.22484 h -3.308953 c 0.575401,-0.70804 1.05501,-1.74853 1.328781,-2.42629 0.12446,-0.30903 0.334489,-0.67305 0.310779,-1.01595 -0.05673,-0.83227 -0.956795,-1.54269 -1.030455,-2.37073 -0.13716,-1.54686 0.800164,-2.82367 -0.618,-3.97937 0.35306,-0.54102 1.136112,-1.08872 1.090395,-1.77791 -0.11938,-1.78141 -1.592478,-1.52567 -2.783735,-1.85249 -0.835657,-0.2289 -1.693348,-0.66716 -2.540011,-0.22689 -0.334434,0.17356 -0.584247,0.46814 -0.931378,0.62224 -0.39878,0.17695 -0.885677,0.1998 -1.252284,0.44872 -0.253153,0.17187 -0.384362,0.64769 -0.702708,0.70189 -0.621451,0.10668 -0.869449,-0.61975 -1.600969,-0.14985 -1.187867,0.76369 -2.115001,2.01503 -3.015005,3.08014 -0.333587,0.3937 -0.791649,0.67561 -1.086289,1.10148 -0.34036,0.49107 -0.425914,1.1304 -0.773047,1.60877 -0.52747,0.72813 -1.398663,1.18445 -1.921053,1.88972 -0.198967,0.26924 -0.282745,0.62135 -0.485942,0.90414 -1.077803,-1.07696 1.235243,-2.68739 1.60439,-3.72537 0.27093,-0.76285 -0.706952,-1.48325 -0.421625,-2.28589 0.405553,-1.13962 1.795773,-1.89832 2.595023,-2.73652 0.362374,-0.38015 0.548611,-0.91947 0.02792,-1.25475 -0.556257,-0.35729 -1.143001,0.18116 -1.689098,-0.15751 l 1.69334,-1.60863 c -0.634151,-0.37592 -1.223433,-1.22 -1.870283,-1.47316 -0.352214,-0.1372 -0.931248,0.20144 -1.207261,-0.10167 -0.32004,-0.35136 0.643445,-1.53827 0.444478,-2.15041 -0.12192,-0.37253 -0.284575,-1.05919 -0.603768,-1.30388 -0.305644,-0.23455 -0.731417,-0.0754 -1.081088,-0.15162 -0.446193,-0.0982 -0.973648,-0.40888 -1.354645,-0.65865 -0.440267,-0.28786 -0.738371,-1.0626 -1.270074,-1.1532 -0.442807,-0.0754 -0.877179,0.29545 -1.185366,0.55792 -0.182033,-0.75438 1.151493,-1.19033 0.909346,-1.75082 -0.126153,-0.29295 -1.365661,-0.1098 -1.671308,-0.1118 -1.209883,-0.005 -2.672139,-0.22782 -3.471389,-1.27007 1.19041,-0.45466 2.734841,-2.63134 2.482535,-3.97923 -0.148167,-0.7874 -1.302284,-1.94149 -1.975381,-2.35212 -0.716782,-0.43708 -1.495554,-0.53702 -2.290677,-0.514 v -5.63302 c 0.177169,-0.003 0.342669,-0.0408 0.470342,-0.17338 0.307314,-0.32004 0.138912,-1.03283 -0.0067,-1.40282 -0.114666,-0.2912 -0.297354,-0.55324 -0.463637,-0.81314 v -1.86317 c 0.929392,-1.12882 1.566756,0.96755 2.545622,0.75772 0.70527,-0.15155 0.658655,-1.00842 0.794121,-1.55279 0.153247,-0.61384 0.452902,-1.24543 0.645095,-1.86262 0.0093,0.44704 0.256709,1.18021 0.262609,1.60863 0.01185,0.95588 -0.126148,2.01755 0.07704,2.96328 0.11599,0.53676 0.465577,0.99743 0.568871,1.52406 0.15494,0.79756 0.336199,2.12346 1.048246,2.66194 0.470744,0.35563 1.695906,0.29284 2.276717,0.37414 0.229446,0.0313 0.529897,-0.0363 0.710234,0.14738 0.491067,0.50038 -0.428349,1.39015 0.315021,1.87699 0.74168,0.48598 1.588303,-0.58665 2.084449,-0.19295 0.288711,0.22944 0.369966,0.68072 0.585019,0.97366 0.65024,0.88647 1.205733,1.87284 1.894916,2.6577 0.211667,0.24043 0.761198,-0.083 1.099015,0.17106 0.947417,0.71289 1.349767,1.77887 2.204053,2.61623 0.06435,-0.45551 0.131802,-0.62917 -0.145058,-0.95683 -0.538477,-0.6367 -0.78734,-1.30471 -1.297033,-1.94733 0.60706,0.58082 1.247138,0.64187 1.947328,1.01609 -0.379304,0.80095 -0.109259,1.46219 0.603631,2.02437 0.3048,0.24046 0.856011,0.45047 0.977085,0.85515 0.06858,0.22775 -0.113473,0.44361 -0.08977,0.67644 0.10414,1.00754 0.557961,1.93718 1.068498,2.794 0.189654,0.31835 0.308186,0.75684 0.661243,0.93972 0.343747,0.17696 0.770424,-0.0947 1.097237,-0.19884 1.209037,-0.38778 1.838961,-0.98382 2.793998,-1.75683 l 0.762099,-1.18537 c 0.369994,0.54187 0.729712,1.44859 0.556145,2.11661 -0.165946,0.63923 -0.829728,1.04145 -0.543555,1.77805 0.473287,1.2175 2.061664,0.93971 2.770324,0.16585 0.348823,-0.38097 0.370911,-0.80254 0.527544,-1.26651 0.27855,-0.82042 0.678924,-1.56715 0.745814,-2.4553 0.04064,-0.54695 -0.126067,-1.29545 0.09237,-1.77805 0.723053,0.72982 1.015059,2.07859 1.864262,2.62554 0.529167,0.34036 1.568065,0.72554 2.199669,0.53589 0.33443,-0.0999 0.57409,-0.39869 0.93138,-0.43599 0.34544,-0.0364 0.66967,0.15321 1.01595,0.10071 1.19888,-0.18285 2.33347,-0.78397 3.47139,-1.07438 0.37338,-0.0957 0.72728,0.14554 1.10066,0.072 0.26586,-0.0525 0.48341,-0.26081 0.76196,-0.26165 0.37931,-0.002 1.43685,0.14651 1.77805,0.31584 0.5461,0.27009 0.90416,0.81454 1.52392,0.9686 0.54695,0.13632 1.13711,0.23285 1.69334,0.12194 0.34374,-0.0686 0.74337,-0.3692 1.10066,-0.2778 0.50631,0.12954 0.66636,0.8738 1.18537,0.9322 0.83312,0.0931 1.61795,-0.99652 2.4553,-1.06002 1.01261,-0.0779 1.68997,1.56971 2.28602,2.17846 0.40047,-0.48006 0.21079,-1.14039 -0.18884,-1.60521 -0.43857,-0.51054 -1.19628,-0.68587 -1.59167,-1.20657 -0.40047,-0.52832 -0.43348,-1.26994 -0.75183,-1.84483 -0.36661,-0.66378 -1.04654,-1.05074 -1.70101,-1.38517 -0.46482,-0.23707 -0.93643,-0.27602 -1.43935,-0.13547 -0.32088,0.0897 -0.9397,0.36665 -1.23942,0.1118 -0.44958,-0.38185 0.5232,-1.37667 0.4089,-1.89314 -0.0567,-0.25654 -0.29217,-0.43778 -0.39207,-0.67739 -0.18542,-0.44281 -0.18445,-1.03287 -0.46131,-1.42827 -0.1888,-0.26924 -0.51143,-0.39378 -0.67315,-0.69011 -0.42756,-0.78402 -0.38692,-1.57644 -1.03716,-2.28425 -0.65363,-0.7112 -1.53845,-1.77637 -2.36649,-2.26235 -0.62399,-0.36661 -1.40789,-0.33106 -2.02765,-0.76032 -0.92626,-0.64177 -1.62913,-1.57734 -2.48172,-2.26399 -0.42249,-0.33951 -1.06668,-0.29291 -1.47562,-0.67561 -0.40725,-0.381 -0.91786,-1.27332 -1.01526,-1.82704 -0.0855,-0.48345 0.15927,-0.90599 0.65372,-0.67739 -0.40979,0.75015 0.14897,1.09387 0.76196,1.49519 0.66548,0.43515 1.30221,0.24305 1.9465,0.56394 0.87714,0.43772 1.82874,1.46645 2.95904,1.39105 0.37004,-0.0246 0.31156,-0.39371 0.34376,-0.65618 0.30988,0.24469 1.36578,1.07871 1.60877,0.67739 0.46736,0.36745 1.57139,0.78139 2.20131,0.67725 -0.29548,-0.70273 -0.96606,-1.42323 -0.59268,-2.20131 0.31072,0.55964 0.50547,1.16414 0.90086,1.68992 0.25061,0.33444 0.67564,0.5411 0.84667,0.9348 0.25315,0.58502 -0.33534,1.30213 -0.0762,1.9439 0.38862,0.96043 2.01593,0.75358 2.81603,0.95848 0.49953,0.12779 0.81023,0.43179 1.35464,0.21758 0.6223,-0.24469 1.13873,-1.39282 1.53159,-1.93638 0.16171,-0.22436 0.49368,-0.75855 0.82642,-0.70695 0.71882,0.11176 0.20323,1.98625 0.18543,2.40193 -0.0813,1.84658 0.14054,4.18348 2.02861,5.05047 0.58674,0.26924 2.04885,0.45971 2.54754,-0.0821 0.7476,-0.81195 0.20326,-1.79333 0.4962,-2.68233 0.31666,-0.95843 1.04226,-1.72293 1.29457,-2.70929 0.17865,-0.69766 -0.10251,-1.4215 0.15149,-2.11661 0.17187,-0.47075 0.60119,-0.81033 0.80863,-1.27007 0.21166,-0.46821 0.18956,-1.26571 0.17516,-1.77791 -0.0161,-0.53848 -0.35558,-0.92844 -0.90168,-0.92044 -0.3065,0.005 -0.84493,0.16175 -0.95245,-0.27259 -0.1414,-0.57235 1.20223,-1.08459 1.23613,-1.77039 0.0373,-0.76454 0.0499,-2.18868 -0.27684,-2.87871 -0.32851,-0.69339 -1.39791,-0.97277 -1.1075,-1.86262 0.45974,0.43347 0.72896,0.64773 1.35465,0.3387 0.57234,0.92117 1.05746,1.91347 1.70347,2.794 0.2159,0.29549 0.44114,0.74081 0.83654,0.81191 1.22428,0.21929 2.336,-1.76869 2.87871,-2.58996 0.65868,-0.99483 1.67817,-1.49354 2.62471,-2.19119 1.36144,-1.00415 2.90989,-2.67371 3.10547,-4.41276 0.15918,-1.40459 -1.35298,-2.02525 -1.66625,-3.13269 0.51986,0.23538 1.10754,0.37337 1.60877,0.62991 0.28025,0.14309 0.52239,0.4437 0.84667,0.4843 0.95484,-0.0809 1.9471,-0.65589 2.35554,-1.35109 z"
       transform="matrix(3.7762291,0,0,3.7762291,-238.69685,-367.10564)" /></g></svg>
