<?xml version="1.0" encoding="UTF-8" standalone="no"?>
<!-- Created with Inkscape (http://www.inkscape.org/) -->

<svg
   width="12in"
   height="12in"
   viewBox="0 0 304.8 304.8"
   version="1.1"
   id="svg5"
   xml:space="preserve"
   xmlns="http://www.w3.org/2000/svg"
   xmlns:svg="http://www.w3.org/2000/svg"><defs
     id="defs2" /><g
     id="layer6"
     style="display:inline"><path
       id="path7332"
       clip-path="none"
       style="display:inline;fill:#ff00ff;stroke:none;stroke-width:0.0662036"
       d="M 63.210373 97.214875 L 63.210373 177.93032 L 143.92581 177.93032 L 143.92581 133.18844 L 143.92581 127.70746 L 143.92581 97.214875 L 63.210373 97.214875 z M 132.35406 100.57802 L 140.56267 100.57802 L 140.56267 127.70732 L 140.56267 128.77527 C 140.46597 128.72447 140.35956 128.69183 140.24286 128.68523 C 140.18726 128.68223 140.1296 128.68461 140.06975 128.6933 C 139.22901 128.81437 138.54496 129.69163 138.22492 130.424 C 138.05643 130.81008 137.766 131.56181 138.46112 131.54491 C 139.00506 131.53131 139.95723 131.39432 140.56267 131.04802 L 140.56267 133.18844 L 140.56267 171.20403 L 139.15137 171.20403 C 139.20183 171.10858 139.24001 171.01752 139.26797 170.92993 C 139.24 171.01742 139.20175 171.10829 139.15137 171.20362 L 132.13702 171.20362 C 132.13704 171.20375 132.137 171.2039 132.13702 171.20403 L 120.2289 171.20403 C 120.57704 170.87377 121.44619 170.87653 121.84383 170.39691 C 122.13426 170.04639 122.17713 169.28604 122.35577 168.77719 C 122.72915 167.71886 123.55549 167.10751 124.06772 166.15247 C 123.15332 165.71221 122.21014 166.10937 121.27372 166.05011 C 120.6011 166.00711 120.03528 165.75412 119.36608 165.73126 C 119.27048 165.72826 119.17285 165.72928 119.07241 165.73728 C 118.3756 165.78888 117.77362 166.14115 117.12508 166.34939 C 116.26994 166.62371 115.44443 167.01488 114.58507 167.27311 C 114.07114 167.42721 113.53599 167.42891 113.06101 167.70746 C 112.68847 167.92675 112.47594 168.30679 112.12881 168.55317 C 111.77236 168.80548 111.29655 168.75057 110.95535 168.99779 C 110.26675 169.49638 109.80342 170.76526 109.08548 171.20444 L 108.48869 171.20444 C 108.11676 170.83283 108.00822 169.71517 107.46959 169.57774 C 107.39949 169.55984 107.33451 169.55271 107.27322 169.55421 C 106.84418 169.56471 106.60435 169.99699 106.19541 170.10515 C 104.95021 170.43598 103.38401 170.32566 102.35933 171.20444 L 83.812911 171.20444 C 84.311213 170.89674 84.7414 170.48198 85.290444 170.25801 C 86.015184 169.96168 86.888014 169.77796 87.444274 169.16584 C 88.092815 168.4521 88.191026 166.96957 88.558479 166.06872 C 88.723579 165.66486 88.931023 165.21529 89.278156 164.93673 C 89.533843 164.73269 90.041879 164.59046 90.069813 164.20268 C 90.110453 163.6515 89.165626 163.66002 88.849826 163.35437 C 88.624612 163.13678 88.4553 162.74214 88.160666 162.6143 C 88.064566 162.5728 87.952367 162.56349 87.831823 162.57339 C 87.470196 162.60319 87.033327 162.80664 86.729797 162.83709 C 86.17947 162.89209 85.572391 162.75169 85.036457 162.90579 C 84.176249 163.15302 83.760492 163.84622 83.081465 164.32543 C 82.761431 164.55149 82.327984 164.56263 81.988471 164.76581 C 80.84463 165.45157 80.568592 166.82842 80.019111 167.93162 C 79.644884 168.68092 78.898936 169.48519 78.263095 170.02113 C 77.833931 170.38251 77.401615 170.799 76.959767 171.20458 L 68.706682 171.20458 C 69.230669 170.86665 69.909881 170.69912 70.388254 170.28428 C 71.093522 169.67045 71.427938 168.90846 71.960485 168.19984 C 72.255972 167.807 72.696252 167.54441 72.915538 167.08467 C 73.093335 166.70959 72.950258 166.27706 73.137366 165.89944 C 73.646213 164.87159 74.221954 164.35766 74.001827 163.10544 C 73.898533 162.51874 73.444667 162.24257 73.183894 161.75066 C 73.017947 161.43654 73.006913 161.10649 72.731753 160.84487 C 72.340593 160.47323 71.878395 160.47393 71.678581 159.88804 C 71.533801 159.46301 71.896143 159.17009 72.014676 158.78739 C 72.209409 158.15495 72.072215 157.08065 71.558293 156.63109 C 70.654059 155.84119 69.189361 156.44645 68.18776 155.90882 C 68.932821 155.06638 70.509275 154.43472 70.906355 153.36881 C 71.333816 152.22051 69.505529 151.22725 68.369629 151.27875 C 68.207357 151.28575 68.059185 151.31455 67.933772 151.36715 C 67.34572 151.61424 67.053244 152.12554 66.573516 152.48697 L 66.573516 111.2292 C 66.622936 111.2549 66.676418 111.2767 66.723911 111.3042 C 67.220051 111.59122 67.509502 112.15431 68.018343 112.44303 C 68.574603 112.75968 69.445926 112.84334 69.962387 112.42949 C 70.750628 111.79618 70.488186 111.06808 70.790446 110.27306 C 70.962319 109.82263 71.386416 109.43309 71.62179 109.00298 C 71.95029 108.40354 72.046794 107.75254 72.505682 107.22507 C 73.232116 108.25462 73.760509 110.05457 74.029743 111.28901 C 74.585156 111.02739 74.970378 109.69907 75.633312 109.7685 C 75.999072 109.8066 75.986351 110.35521 76.091338 110.61175 C 76.309778 111.14515 76.714502 111.67769 77.331716 111.70817 C 78.234256 111.75217 79.107234 110.74556 79.956435 110.95045 C 79.459447 112.13748 78.320573 112.64959 77.518786 113.57585 C 76.948133 114.23625 77.601865 114.86121 77.207323 115.43779 C 76.938929 115.82895 76.496019 116.00409 76.146351 116.30211 C 75.509658 116.84567 74.621573 117.7407 74.242266 118.48577 C 73.708025 119.53648 73.595343 120.79367 74.117736 121.87232 C 74.382737 122.41842 74.901845 122.74614 74.943332 123.39638 C 75.000902 124.30994 74.404857 125.03041 74.168643 125.85168 C 73.964596 126.56034 74.013679 127.47735 73.897686 128.22241 C 73.808786 128.78883 73.942497 129.87512 74.624068 130.04699 C 75.622282 130.29845 76.017651 128.48491 76.907492 129.03186 C 77.804106 129.58304 77.650088 130.91391 78.771069 131.12219 C 79.470416 131.25257 79.734581 130.72338 80.174842 130.26279 C 80.848788 129.55758 81.626815 128.96409 82.277902 128.22241 C 82.597936 127.85919 83.368511 127.08103 83.923072 127.39175 C 84.592785 127.76767 83.447247 128.85567 83.248281 129.23836 C 83.029847 129.65831 82.636979 130.27813 82.646293 130.76242 C 82.651393 131.02997 82.822405 131.25006 82.804625 131.52438 C 82.742815 132.50313 82.534479 133.01872 83.241439 133.87555 C 83.738433 134.47837 84.760341 133.96114 85.375015 133.83504 C 86.399476 133.62337 87.485883 133.68761 88.423138 133.19569 C 89.344305 132.71225 90.326294 131.63585 91.301707 131.28737 C 92.016704 131.03192 93.020484 130.74711 93.555571 130.22133 C 93.963664 129.82086 94.176191 129.23924 94.406484 128.73039 C 94.685037 128.11148 95.29885 127.75835 95.33102 127.03705 C 95.41315 125.21672 92.676682 124.28025 91.300749 123.90244 C 90.327616 123.74512 90.523725 122.58319 91.396952 122.70462 C 92.966618 122.9229 95.356581 121.80994 94.909395 119.75571 C 94.793408 119.22231 93.944216 118.76428 93.944216 118.31047 C 93.944216 117.82448 94.638444 117.65588 94.58849 117.04628 C 94.48943 115.8237 93.597032 114.62832 94.688388 113.65974 L 93.523413 111.54299 L 92.158641 110.18835 L 91.577727 108.8701 L 90.793732 108.57972 L 90.539745 109.00298 C 90.264579 108.57203 90.062174 108.15038 89.608367 107.86674 C 89.289174 107.66868 88.887086 107.69068 88.632239 107.37656 C 88.136945 106.76527 88.403585 105.34883 89.100392 105.0254 C 89.421273 104.87639 89.794641 105.11263 90.092667 104.93563 C 90.485515 104.7028 90.893805 104.58461 91.293359 104.26823 C 92.112866 103.92728 92.947733 103.91451 93.757147 103.55129 C 94.621588 103.16267 95.133401 101.86059 96.187406 102.73034 C 96.669916 102.66574 96.831116 102.25504 97.23921 102.13219 C 97.609197 102.02102 99.306803 102.78892 99.579424 103.0856 C 100.03493 103.58005 99.919755 104.25744 99.942615 104.85434 C 99.970555 105.55877 100.3745 106.58568 99.514285 106.88624 C 100.02483 107.43658 100.05022 108.21391 100.32962 108.91827 C 100.49557 109.33822 100.78003 109.71747 100.75124 110.18821 C 100.68184 111.30243 99.816475 112.40315 99.389755 113.40561 C 99.202642 113.84418 99.258575 114.3183 99.116335 114.76026 C 98.848794 115.59423 97.820092 117.21387 98.246812 118.06223 C 98.544833 118.6549 99.173871 118.73207 99.683565 119.0411 C 101.04924 119.86823 102.22351 120.3872 103.72889 120.80122 C 104.13783 120.91383 104.19717 121.53955 104.76359 121.42017 C 105.56623 121.25169 106.09118 119.82583 106.20294 119.16289 C 106.60764 119.66412 106.68548 120.35923 107.47288 120.48962 C 109.1416 120.76478 109.9266 119.54728 111.28296 118.85047 C 112.0094 118.47794 112.9178 118.28406 113.53163 117.69986 C 114.13779 117.12328 114.72377 116.23013 114.97946 115.43765 C 115.09376 115.0812 115.24615 114.18198 115.62292 114.01349 C 115.9201 113.88057 116.54833 114.50292 116.61437 114.76792 C 116.70157 115.11506 116.48223 115.4462 116.43058 115.77634 C 116.37978 116.09638 116.58981 116.31991 116.60082 116.62302 C 116.61522 117.00735 116.32729 117.31642 116.36285 117.72367 L 117.20952 116.80831 L 118.47959 115.86092 C 119.08073 116.69827 120.64783 115.47908 121.01782 114.76026 C 121.16429 114.47409 121.18642 114.06012 121.23637 113.74431 C 121.29057 113.40057 121.23037 112.86284 121.50472 112.59699 C 121.78582 112.32436 122.32089 112.80531 122.62823 112.86288 C 123.11591 112.95598 123.51128 112.60473 123.98288 112.57933 C 124.39182 112.55733 124.75169 112.89 125.15894 112.69018 C 125.67117 112.43957 125.82098 111.28381 126.00301 110.78089 C 126.28834 109.99524 127.11727 109.33652 127.96224 109.14517 C 128.40505 109.04527 128.72847 109.43395 128.94945 109.76494 C 129.38125 110.41264 129.83332 111.7631 130.92552 111.55736 C 131.86363 111.38126 132.24716 109.45421 131.79504 108.749 C 131.59184 108.43065 130.94331 108.05964 130.94331 107.65669 C 130.94331 106.79478 133.04466 107.13768 132.14387 105.95828 C 131.41997 105.0117 129.98328 105.55703 129.14555 104.85612 C 129.02742 104.67663 129.21545 104.70529 129.40173 104.55971 C 129.80305 104.2456 131.04854 103.5547 131.01721 102.99158 C 130.98841 102.46284 130.33725 102.28841 130.41768 101.72165 C 130.90706 101.9317 132.02562 101.44426 132.27031 100.94846 C 132.31641 100.85536 132.34396 100.65044 132.35406 100.57802 z M 115.58734 102.92234 L 118.58318 102.92234 L 118.58318 103.83333 L 116.66049 103.83333 L 116.66049 104.35321 L 117.81739 104.35321 L 117.81739 105.25311 L 116.66049 105.25311 L 116.66049 105.9238 L 118.62232 105.9238 L 118.62232 106.83478 L 115.58734 106.83478 L 115.58734 102.92234 z M 126.29394 113.322 L 126.29394 113.32214 C 126.17103 113.32288 126.04992 113.34156 125.93212 113.38536 C 125.56128 113.52336 125.45041 113.91192 125.3378 114.25228 C 125.04147 115.1489 124.66968 116.52565 124.68408 117.46969 C 124.69008 117.86248 125.06427 118.39589 125.50708 118.2909 C 126.66949 118.01574 126.81524 116.15229 127.16237 115.26837 C 127.3825 114.70957 128.3985 114.69426 128.4772 114.15663 C 128.5229 113.8459 128.08779 113.78239 127.87781 113.74349 C 127.43077 113.66029 126.91324 113.36893 126.41738 113.32706 C 126.37608 113.32406 126.33488 113.322 126.29394 113.322 z M 92.832611 135.33584 C 92.823911 135.33573 92.815223 135.33572 92.806473 135.33597 L 92.806473 135.33652 C 92.281397 135.35442 91.679891 135.95925 91.301707 136.26024 C 90.596022 136.82187 91.370298 137.69135 92.148377 137.30273 C 92.498897 137.12747 93.104269 136.84735 93.307469 136.50191 C 93.553843 136.08111 93.486209 135.41304 92.910476 135.34104 C 92.884796 135.33804 92.858761 135.33597 92.832611 135.33597 L 92.832611 135.33584 z M 105.54813 136.54638 C 105.48673 136.54635 105.42282 136.5524 105.35641 136.5654 C 104.77221 136.6797 104.40049 137.06241 103.91705 137.36213 C 102.97725 137.94548 101.13835 138.12827 100.82254 139.39827 C 100.68538 139.94776 101.07309 140.5133 101.24581 141.0069 C 101.49981 141.72996 101.25181 144.32588 102.64712 144.09389 C 103.09924 144.01859 103.35153 143.51306 103.74777 143.32002 C 104.61984 142.89499 105.40468 142.88147 106.19377 142.16011 C 106.51974 141.86209 106.55956 141.41166 106.88553 141.1094 C 107.28346 140.7411 108.15127 140.76306 108.35362 140.24152 C 108.48231 139.90962 108.33582 139.50998 108.1411 139.23651 C 107.91419 138.91901 107.51286 138.84548 107.29019 138.53983 C 106.84886 137.93182 106.46938 136.5469 105.54813 136.54638 z M 89.661874 160.32527 C 89.072154 160.33127 88.167217 162.11199 88.851468 162.16367 C 89.430582 162.20857 90.605746 160.40596 89.689653 160.32636 C 89.680453 160.32556 89.671234 160.32541 89.661874 160.32541 L 89.661874 160.32527 z M 132.81907 164.57915 C 132.79957 164.57915 132.77938 164.58012 132.75858 164.58312 C 132.77928 164.58112 132.79967 164.57915 132.81907 164.57915 z M 132.88708 164.58435 C 132.90188 164.58635 132.91619 164.58928 132.93019 164.59228 C 132.91619 164.58828 132.90188 164.58635 132.88708 164.58435 z M 132.74271 164.58489 C 132.72021 164.58789 132.69688 164.59291 132.67278 164.59831 C 132.69688 164.59231 132.72021 164.58799 132.74271 164.58489 z M 132.65923 164.60186 C 132.63503 164.60786 132.60996 164.61606 132.58396 164.62526 C 132.60986 164.61626 132.63503 164.60816 132.65923 164.60186 z M 132.56412 164.63252 C 132.53792 164.64252 132.51083 164.65383 132.48283 164.66673 C 132.51083 164.65383 132.53792 164.64242 132.56412 164.63252 z M 133.08975 164.67343 C 133.10125 164.68243 133.11248 164.69246 133.12328 164.70286 C 133.11248 164.69246 133.10125 164.68263 133.08975 164.67343 z M 132.46368 164.67644 C 132.43568 164.68984 132.40671 164.70483 132.37691 164.72133 C 132.40671 164.70483 132.43568 164.68984 132.46368 164.67644 z M 132.35721 164.73255 C 132.33331 164.74625 132.3098 164.76109 132.2866 164.77689 C 132.3098 164.76109 132.33331 164.74625 132.35721 164.73255 z M 132.2699 164.78852 C 132.2476 164.80432 132.22571 164.8209 132.20421 164.8382 C 132.22571 164.821 132.2476 164.80432 132.2699 164.78852 z M 132.18533 164.85352 C 132.16483 164.87042 132.14485 164.88773 132.12525 164.90553 C 132.14485 164.88773 132.16483 164.87042 132.18533 164.85352 z M 133.2697 164.90758 C 133.2879 164.94208 133.30509 164.97817 133.32129 165.01582 C 133.30509 164.97822 133.2879 164.94213 133.2697 164.90758 z M 132.10048 164.92893 C 132.08628 164.94233 132.07235 164.95583 132.05875 164.96943 C 132.07235 164.95583 132.08628 164.94233 132.10048 164.92893 z M 132.03521 164.99338 C 132.03021 164.99938 132.02426 165.00521 132.01906 165.01131 C 132.02406 165.00531 132.02981 164.99918 132.03521 164.99338 z M 133.32567 165.0265 C 133.34127 165.0632 133.35612 165.1011 133.37042 165.13981 C 133.35612 165.10111 133.34127 165.06331 133.32567 165.0265 z M 132.00469 165.02841 C 131.99869 165.03541 131.99305 165.04364 131.98745 165.05154 C 131.99345 165.04354 131.99889 165.03581 132.00469 165.02841 z M 131.98074 165.06112 C 131.96284 165.08732 131.94616 165.11578 131.93066 165.14638 C 131.94606 165.11588 131.96284 165.08732 131.98074 165.06112 z M 135.52617 165.14788 C 135.51217 165.14888 135.49794 165.14985 135.48374 165.15185 C 135.49804 165.14985 135.51207 165.14888 135.52617 165.14788 z M 131.92819 165.15144 C 131.91319 165.18154 131.8996 165.21363 131.887 165.24723 C 131.8996 165.21363 131.91319 165.18154 131.92819 165.15144 z M 131.88317 165.25695 C 131.87087 165.29075 131.85989 165.32605 131.85019 165.36259 C 131.86019 165.32599 131.87087 165.29079 131.88317 165.25695 z M 131.84841 165.36861 C 131.83841 165.40671 131.82992 165.44601 131.82282 165.4863 C 131.82982 165.4461 131.83851 165.4067 131.84841 165.36861 z M 131.82214 165.48931 C 131.81514 165.53041 131.80923 165.57251 131.80503 165.61521 C 131.80903 165.57251 131.81514 165.53041 131.82214 165.48931 z M 131.80503 165.61713 C 131.80103 165.66023 131.79796 165.70393 131.79696 165.74782 C 131.79787 165.70392 131.80103 165.66032 131.80503 165.61713 z M 131.79696 165.74864 C 131.79606 165.79284 131.79685 165.83724 131.79901 165.88138 C 131.79701 165.83728 131.79596 165.79288 131.79696 165.74864 z M 131.79901 165.88179 C 131.80101 165.92499 131.80596 165.96779 131.81146 166.01015 C 131.80546 165.96785 131.80151 165.92495 131.79901 165.88179 z M 131.81229 166.01576 C 131.81829 166.05826 131.82578 166.10016 131.83528 166.14111 C 131.82628 166.10021 131.81829 166.05821 131.81229 166.01576 z M 131.83528 166.14139 C 131.84528 166.18299 131.8566 166.22369 131.8699 166.26277 C 131.8565 166.22357 131.84488 166.18307 131.83528 166.14139 z M 138.20932 166.3795 C 138.26922 166.4538 138.32768 166.52878 138.38394 166.60407 C 138.32774 166.52887 138.26918 166.45377 138.20932 166.3795 z M 131.92956 166.40277 C 131.99816 166.53397 132.09448 166.63763 132.22187 166.6922 C 132.37842 166.7589 132.61696 166.71692 132.8359 166.71272 C 132.61691 166.71672 132.37847 166.75849 132.22187 166.69179 C 132.09461 166.63728 131.99818 166.53379 131.92956 166.40277 z M 138.40186 166.62815 C 138.42596 166.66075 138.44979 166.69326 138.47289 166.72586 C 138.44979 166.69316 138.42596 166.66075 138.40186 166.62815 z M 132.89091 166.71204 C 132.88001 166.71187 132.86876 166.71238 132.85766 166.71245 C 132.87386 166.71234 132.88993 166.71244 132.90583 166.71286 C 132.90083 166.71273 132.89581 166.71212 132.89091 166.71204 z M 132.96371 166.71601 C 132.97071 166.7166 132.9781 166.71706 132.9852 166.71806 C 132.9782 166.7173 132.97091 166.71701 132.96371 166.71601 z M 133.05143 166.72819 C 133.05443 166.72885 133.05742 166.7291 133.06142 166.7301 C 133.05842 166.72938 133.05543 166.72919 133.05143 166.72819 z M 138.48151 166.73859 C 138.50441 166.77109 138.52645 166.80356 138.54815 166.83616 C 138.52645 166.80366 138.50441 166.77109 138.48151 166.73859 z M 133.12807 166.75008 C 133.13307 166.75208 133.13826 166.75397 133.14326 166.75597 C 133.13826 166.75397 133.13317 166.75208 133.12807 166.75008 z M 133.15448 166.76117 C 133.16148 166.76417 133.16896 166.76818 133.17596 166.77198 C 133.16896 166.76798 133.16178 166.76497 133.15448 166.76117 z M 133.19348 166.78238 C 133.19748 166.78438 133.2015 166.78736 133.2047 166.78936 C 133.2007 166.78636 133.19768 166.78438 133.19348 166.78238 z M 133.22112 166.80167 C 133.22612 166.80567 133.23103 166.80972 133.23563 166.81372 C 133.23063 166.80972 133.22572 166.80567 133.22112 166.80167 z M 133.2526 166.82973 C 133.2556 166.83273 133.25753 166.83566 133.26053 166.83766 C 133.25753 166.83466 133.2556 166.83173 133.2526 166.82973 z M 133.27901 166.86093 C 133.28101 166.86293 133.28207 166.86591 133.28407 166.86791 C 133.28207 166.86591 133.28101 166.86293 133.27901 166.86093 z M 138.57237 166.87297 C 138.59377 166.90587 138.61478 166.93887 138.63478 166.97177 C 138.61488 166.93887 138.59387 166.90587 138.57237 166.87297 z M 133.32088 166.93373 C 133.32288 166.93673 133.32399 166.94077 133.32499 166.94427 C 133.32399 166.94027 133.32188 166.93723 133.32088 166.93373 z M 133.33758 166.97834 C 133.33852 166.98134 133.33959 166.98437 133.34059 166.98737 C 133.33969 166.98437 133.33858 166.98134 133.33758 166.97834 z M 133.35099 167.02898 C 133.35127 167.02998 133.35153 167.03208 133.35181 167.03308 C 133.35153 167.03208 133.35127 167.02998 133.35099 167.02898 z M 138.7125 167.10698 C 138.7318 167.14278 138.74997 167.17857 138.76697 167.21413 C 138.74997 167.17853 138.7318 167.14284 138.7125 167.10698 z M 138.77135 167.2233 C 138.78865 167.2601 138.80464 167.29649 138.81924 167.33291 C 138.80464 167.29661 138.78865 167.26002 138.77135 167.2233 z M 138.82321 167.34276 C 138.83671 167.37706 138.84871 167.41157 138.85961 167.44636 C 138.84871 167.41166 138.83671 167.37705 138.82321 167.34276 z M 138.86221 167.45457 C 138.87301 167.48987 138.88265 167.52527 138.89095 167.5609 C 138.88295 167.5253 138.87301 167.4898 138.86221 167.45457 z M 138.93146 167.79887 C 138.93546 167.83587 138.9395 167.87317 138.942 167.9104 C 138.939 167.8731 138.93596 167.836 138.93146 167.79887 z M 138.94227 167.9141 C 138.95027 168.03085 138.95226 168.14856 138.95226 168.26648 C 138.95229 168.14861 138.95027 168.0308 138.94227 167.9141 z M 138.95226 168.26689 C 138.95223 168.34949 138.95142 168.43224 138.9513 168.51472 C 138.95142 168.43222 138.95223 168.34955 138.95226 168.26689 z M 132.64815 168.61913 C 132.60295 168.68743 132.56025 168.75311 132.52143 168.81551 C 132.56013 168.75321 132.60303 168.6873 132.64815 168.61913 z M 132.49775 168.8541 C 132.48425 168.8762 132.47136 168.8979 132.45916 168.9191 C 132.47136 168.898 132.48435 168.8762 132.49775 168.8541 z M 132.44684 168.94031 C 132.43054 168.96911 132.41563 168.99695 132.40223 169.02365 C 132.41573 168.99695 132.43054 168.96911 132.44684 168.94031 z M 132.39457 169.03912 C 132.37867 169.07142 132.36332 169.10443 132.34872 169.13833 C 132.36332 169.10443 132.37857 169.07142 132.39457 169.03912 z M 132.34257 169.15297 C 132.32797 169.18757 132.31403 169.22287 132.30083 169.25889 C 132.31403 169.22289 132.32807 169.18759 132.34257 169.15297 z M 132.297 169.26957 C 132.2837 169.30617 132.27113 169.34333 132.25923 169.38123 C 132.27113 169.34333 132.2837 169.30617 132.297 169.26957 z M 132.25457 169.39588 C 132.24327 169.43238 132.23279 169.46947 132.22269 169.50699 C 132.23269 169.46949 132.24327 169.4323 132.25457 169.39588 z M 132.2153 169.53532 C 132.2063 169.57132 132.19726 169.60763 132.18916 169.64439 C 132.19716 169.60759 132.2061 169.57128 132.2153 169.53532 z M 132.18642 169.6567 C 132.17742 169.6981 132.16898 169.7399 132.16138 169.78219 C 132.16938 169.73989 132.17742 169.69809 132.18642 169.6567 z M 132.15933 169.793 C 132.15233 169.8347 132.14514 169.8769 132.13894 169.91931 C 132.14494 169.87691 132.15183 169.83471 132.15933 169.793 z M 132.13702 169.93314 C 132.13102 169.97584 132.12554 170.01907 132.12074 170.06232 C 132.12574 170.01902 132.13092 169.97589 132.13702 169.93314 z M 132.11964 170.07258 C 132.11464 170.11768 132.11065 170.16288 132.10705 170.20833 C 132.11005 170.16293 132.11504 170.11763 132.11964 170.07258 z M 132.10664 170.21367 C 132.10364 170.25947 132.10071 170.30557 132.09871 170.35161 C 132.10071 170.30551 132.10364 170.25951 132.10664 170.21367 z M 132.09816 170.35709 C 132.09616 170.40409 132.09419 170.45109 132.09419 170.49817 C 132.09486 170.45117 132.09616 170.40407 132.09816 170.35709 z M 132.09392 170.49941 C 132.09333 170.54221 132.0935 170.58492 132.09405 170.6275 C 132.0935 170.5849 132.09333 170.54219 132.09392 170.49941 z M 132.09446 170.65801 C 132.09528 170.70081 132.09643 170.74351 132.09843 170.78596 C 132.09643 170.74346 132.09546 170.70086 132.09446 170.65801 z M 132.09843 170.78637 C 132.10043 170.83367 132.10346 170.88087 132.10746 170.9276 C 132.10346 170.8808 132.10143 170.8337 132.09843 170.78637 z M 132.10746 170.92801 C 132.11146 170.97481 132.11543 171.02121 132.12033 171.06718 C 132.11533 171.02118 132.11136 170.97478 132.10746 170.92801 z "
       transform="matrix(3.7762291,0,0,3.7762291,-238.69685,-367.10564)" /></g></svg>
